<svg xmlns="http://www.w3.org/2000/svg" width="24" height="24" viewBox="0 0 24 24" fill="none" stroke="currentColor" stroke-width="2" stroke-linecap="round" stroke-linejoin="round" class="icon icon-tabler icons-tabler-outline icon-tabler-brand-twitch">
  <path stroke="none" d="M0 0h24v24H0z" fill="none" />
  <path d="M4 5v11a1 1 0 0 0 1 1h2v4l4 -4h5.584c.266 0 .52 -.105 .707 -.293l2.707 -2.707a1 1 0 0 0 .293 -.707v-9.414a1 1 0 0 0 -1 -1h-14a1 1 0 0 0 -1 1z" />
  <path d="M16 8l0 4" />
  <path d="M12 8l0 4" />
</svg>
