<svg width="511" height="457" viewBox="0 0 511 457" fill="none" xmlns="http://www.w3.org/2000/svg">
<path d="M155.308 55.377C155.308 55.377 87.0726 82.6006 85.6583 84.0148C84.2441 85.429 76.1124 104.167 76.1124 110.531C76.1124 116.895 75.7589 125.381 79.2945 131.744C82.83 138.108 84.2442 145.18 84.2442 147.654C84.2442 150.129 73.2178 154.725 73.2178 154.725L66.5223 153.643C66.5223 153.643 51.1427 157.576 41.8619 174.215C32.5811 190.854 16.7344 208.653 17.4844 237.153C18.2344 265.653 37.9844 275.466 37.9844 275.466L36.9219 276.903C36.9219 276.903 22.3036 319.026 38.894 330.246L37.9903 333.855C37.9903 333.855 35.0934 350.58 45.4139 379.586C55.7344 408.591 76.5574 420.272 76.5574 420.272C76.5574 420.272 70.5004 429.309 69.7493 430.058C68.9982 430.808 61.1142 436.299 69.4312 444.231C77.7482 452.162 81.5042 450.826 87.1609 448.882C92.8178 446.937 102.983 443.313 104.574 440.397C106.164 437.48 111.561 429.183 112.528 425.813C113.495 422.443 118.451 409.107 118.451 409.107C118.451 409.107 125.168 402.301 131.267 404.865C137.365 407.428 140.282 407.428 143.818 409.637C147.353 411.847 154.078 414.013 159.222 412.924C164.366 411.836 192.943 403.517 192.943 403.517C192.943 403.517 185.449 409.637 187.393 414.322C189.338 419.007 195.879 423.073 201.094 423.78C206.308 424.487 212.306 424.483 212.761 419.449C213.215 414.414 209.402 411.67 210.021 409.991C210.64 408.312 211.435 404.864 215.324 403.981C219.213 403.097 240.457 389.053 243.747 383.01C247.037 376.967 249.53 358.637 249.619 357.665C249.707 356.693 251.387 344.584 251.828 343.081C252.27 341.578 254.448 336.983 254.448 336.983L256.084 333.185L258.75 330.544L265.031 325.966C265.031 325.966 273.218 320.1 267.827 299.417C262.435 278.734 261.507 263.885 261.507 263.885C261.507 263.885 265.484 256.947 266.678 256.505C267.871 256.063 273.484 254.383 274.014 254.339C274.544 254.295 287.051 251.29 287.051 251.29L298.188 247.135L315.777 237.457L320.41 229.305L302.431 203.295L298.1 202.146L294.697 202.809C294.697 202.809 289.844 206.992 281.576 207.154C273.307 207.317 251.077 165.155 233.532 158.526C215.987 151.897 228.494 116.542 228.494 116.542L223.133 89.6298L215.943 65.4532C215.943 65.4532 201.447 56.4376 200.74 56.2609C200.033 56.0841 176.875 56.4376 173.87 57.4983C170.865 58.559 155.308 55.377 155.308 55.377Z" fill="white"/>
<path d="M503.609 264.144C497.916 271.159 270.674 269.029 261.507 263.887C253.044 259.14 259.908 35.8392 259.919 35.6858C260.809 23.1225 263.629 20.9586 272.267 20.7854C330.222 19.6234 494.744 15.3758 502.889 22.042C509.691 27.6092 512.634 253.023 503.609 264.144Z" fill="#E5E5E5" stroke="black" stroke-width="2.57006"/>
<path d="M496.947 255.707C491.624 262.267 279.13 260.275 270.558 255.467C262.645 251.028 269.063 42.2198 269.073 42.0764C269.906 30.3285 272.543 28.305 280.62 28.143C334.813 27.0564 488.658 23.0845 496.274 29.3181C502.635 34.5239 505.386 245.308 496.947 255.707Z" fill="white" stroke="black" stroke-width="2.40326"/>
<path d="M311.62 77.0781H417.803H311.62Z" fill="#E5E5E5"/>
<path d="M311.62 77.0781H417.803" stroke="black" stroke-width="3.39711" stroke-linecap="round" stroke-linejoin="round"/>
<path d="M311.893 95.8438H454.897H311.893Z" fill="#E5E5E5"/>
<path d="M311.893 95.8438H454.897" stroke="black" stroke-width="3.94237" stroke-linecap="round" stroke-linejoin="round"/>
<path d="M311.756 114.201H432.959H311.756Z" fill="#E5E5E5"/>
<path d="M311.756 114.201H432.959" stroke="black" stroke-width="3.66885" stroke-linecap="round" stroke-linejoin="round"/>
<path d="M311.138 132.078H364.397H311.138Z" fill="#E5E5E5"/>
<path d="M311.138 132.078H364.397" stroke="black" stroke-width="2.43204" stroke-linecap="round" stroke-linejoin="round"/>
<path d="M377.23 154.975C377.23 154.968 378.824 154.832 385.098 154.488C391.211 154.153 402.228 153.607 413.823 153.25C418.234 153.114 422.622 153.009 426.776 152.952C431.384 152.89 435.956 152.888 440.012 152.98C443.632 153.062 446.865 153.221 449.313 153.48C450.499 153.606 451.483 153.754 452.219 153.922C452.581 154.005 452.867 154.089 453.074 154.17C453.238 154.234 453.422 154.337 453.348 154.324C453.313 154.319 453.348 154.353 453.408 154.463C453.474 154.574 453.557 154.729 453.657 154.958C453.857 155.411 454.071 156.037 454.292 156.867C454.507 157.677 454.716 158.638 454.916 159.746C455.113 160.836 455.298 162.054 455.47 163.385C455.807 165.996 456.086 169.02 456.289 172.296C456.487 175.496 456.611 178.924 456.642 182.397C456.672 185.802 456.613 189.245 456.447 192.526C456.283 195.757 456.017 198.816 455.635 201.506C455.446 202.836 455.231 204.066 454.988 205.174C454.919 205.488 454.849 205.791 454.776 206.084C454.597 206.803 454.406 207.462 454.201 208.049C453.923 208.845 453.641 209.454 453.371 209.887C453.243 210.091 453.132 210.234 453.044 210.33C452.96 210.421 452.907 210.457 452.903 210.461C452.85 210.495 452.707 210.57 452.443 210.669C452.189 210.763 451.859 210.866 451.445 210.973C450.633 211.183 449.576 211.389 448.266 211.585C445.741 211.964 442.434 212.283 438.476 212.542C430.915 213.035 421.358 213.281 411.541 213.338C402.037 213.394 392.658 213.27 385.48 213.055C381.884 212.947 378.896 212.818 376.732 212.68C375.633 212.61 374.783 212.541 374.171 212.474C373.853 212.439 373.655 212.411 373.505 212.388C373.439 212.378 373.399 212.37 373.403 212.377C373.403 212.38 373.419 212.387 373.45 212.402C373.476 212.415 373.537 212.445 373.61 212.491C373.834 212.631 373.954 212.785 374 212.852C374.055 212.932 374.064 212.966 374.06 212.968C374.05 212.972 373.992 212.854 373.931 212.67C373.868 212.482 373.8 212.232 373.73 211.924C373.66 211.613 373.59 211.254 373.521 210.848C373.382 210.024 373.251 209.031 373.131 207.906C373.008 206.755 372.898 205.475 372.801 204.103C372.599 201.227 372.459 197.984 372.384 194.656C372.303 191.036 372.301 187.376 372.37 183.889C372.449 179.941 372.616 176.327 372.851 173.141C373.14 169.234 373.515 166.151 373.919 163.757C374.131 162.496 374.347 161.451 374.556 160.584C374.603 160.387 374.651 160.197 374.698 160.013C375.013 158.798 375.332 157.871 375.635 157.162C376.016 156.275 376.365 155.754 376.637 155.447C376.81 155.251 376.953 155.141 377.056 155.078C377.189 154.996 377.287 154.973 377.344 154.963L377.23 154.975ZM376.986 152.669C376.646 152.722 376.248 152.847 375.827 153.112C375.517 153.307 375.207 153.57 374.901 153.918C374.429 154.455 373.963 155.201 373.509 156.242C373.145 157.077 372.783 158.115 372.431 159.411C372.378 159.607 372.325 159.81 372.272 160.019C372.038 160.939 371.795 162.032 371.552 163.337C371.091 165.815 370.649 168.961 370.281 172.926C369.981 176.162 369.742 179.814 369.585 183.806C369.446 187.333 369.375 191.026 369.378 194.69C369.378 198.058 369.447 201.347 369.576 204.287C369.638 205.689 369.713 207.008 369.802 208.206C369.889 209.374 369.99 210.436 370.104 211.347C370.16 211.797 370.221 212.216 370.286 212.597C370.35 212.972 370.421 213.326 370.501 213.642C370.578 213.945 370.677 214.268 370.811 214.562C370.879 214.71 370.971 214.885 371.098 215.059C371.22 215.226 371.419 215.455 371.72 215.641C371.834 215.711 371.94 215.764 372.023 215.801C372.108 215.839 372.189 215.87 372.262 215.896C372.406 215.947 372.552 215.99 372.691 216.025C372.969 216.096 373.292 216.159 373.649 216.218C374.363 216.335 375.297 216.447 376.423 216.554C378.66 216.766 381.701 216.965 385.319 217.14C392.549 217.49 401.988 217.738 411.54 217.794C421.394 217.851 431.07 217.702 438.761 217.278C442.783 217.057 446.233 216.763 448.959 216.383C450.366 216.187 451.604 215.964 452.638 215.709C453.168 215.578 453.664 215.434 454.115 215.273C454.566 215.111 455.018 214.916 455.428 214.671C455.895 214.392 456.295 214.05 456.635 213.688C456.982 213.319 457.281 212.913 457.542 212.497C458.076 211.646 458.5 210.663 458.847 209.653C459.108 208.889 459.336 208.077 459.536 207.241C459.618 206.899 459.695 206.549 459.77 206.192C460.031 204.935 460.249 203.578 460.43 202.149C460.796 199.265 461.014 196.047 461.113 192.712C461.213 189.318 461.189 185.78 461.064 182.298C460.937 178.744 460.705 175.243 460.391 171.972C460.07 168.625 459.662 165.519 459.188 162.818C458.947 161.44 458.688 160.165 458.413 159.011C458.135 157.841 457.838 156.789 457.525 155.875C457.208 154.953 456.864 154.142 456.485 153.483C456.293 153.148 456.081 152.834 455.845 152.557C455.609 152.281 455.324 152.013 454.982 151.809C454.652 151.612 454.275 151.485 453.934 151.395C453.575 151.299 453.167 151.221 452.734 151.156C451.854 151.022 450.76 150.924 449.529 150.85C446.981 150.698 443.674 150.642 440.037 150.645C435.953 150.648 431.352 150.723 426.737 150.828C422.561 150.923 418.185 151.049 413.757 151.195C402.296 151.572 390.963 152.068 384.991 152.33C378.706 152.605 377.102 152.664 377.1 152.657L376.986 152.669Z" fill="black"/>
<path d="M325.514 267.762L290.279 430.588L325.514 267.762Z" fill="white"/>
<path d="M325.514 267.762L290.279 430.588" stroke="black" stroke-width="2"/>
<path d="M325.514 267.761C325.3 267.756 324.697 267.369 324.231 267.73C320.473 270.649 311.373 322.018 305.509 349.172C299.677 376.185 286.886 426.443 289.131 430.231C289.401 430.688 290.087 430.528 290.278 430.588C290.477 430.613 291.036 431.041 291.471 430.737C295.081 428.217 304.213 377.166 310.07 350.159C315.958 323.01 328.909 272.475 326.694 268.263C326.42 267.741 325.71 267.845 325.514 267.761Z" fill="black"/>
<path d="M428.149 268.49L463.343 429.881L428.149 268.49Z" fill="white"/>
<path d="M428.149 268.49L463.343 429.881" stroke="black" stroke-width="2"/>
<path d="M428.149 268.489C427.959 268.53 427.28 268.322 427.008 268.738C424.717 272.233 437.203 322.928 443.069 349.838C448.93 376.726 458.626 427.895 462.185 430.132C462.611 430.4 463.15 429.922 463.343 429.88C463.536 429.837 464.225 430.048 464.501 429.627C466.806 426.111 454.318 375.551 448.452 348.664C442.581 321.755 432.828 270.464 429.29 268.24C428.869 267.976 428.339 268.447 428.149 268.489Z" fill="black"/>
<path d="M379.381 269.875L377.96 374.726L379.381 269.875Z" fill="white"/>
<path d="M379.381 269.875L377.96 374.726" stroke="black" stroke-width="4" stroke-linecap="round" stroke-linejoin="round"/>
<path d="M131.178 184.47C123.722 183.665 116.192 181.718 114.458 179.657C113.98 179.089 113.501 176.103 113.501 175.939C113.501 175.774 116.79 176.825 119.406 176.761C124.682 176.633 125.751 176.26 124.282 175.06C123.125 174.114 120.383 173.321 108.871 169.717C78.1538 160.101 101.79 167.094 89.4726 163.141C72.4543 157.681 64.0935 141.343 66.3237 116.627C67.6459 101.974 72.7626 83.2053 79.4092 69.9073C81.6494 65.4254 83.9652 61.4818 84.9511 60.6723C85.2762 60.4054 86.074 59.9623 86.0119 59.7818C85.9499 59.6014 84.429 59.2555 83.1164 58.8235C68.5917 54.0435 59.8594 39.5915 62.5686 25.4318C64.3532 16.1048 70.8825 7.23351 78.7778 4.29152C81.1835 3.3951 85.5156 2.99084 88.3694 3.66457C91.4563 4.39331 97.9342 7.65663 102.568 11.0652C113.773 19.3083 115.451 19.4617 118.598 20.1368C120.284 20.4982 120.654 21.3341 125.07 20.1899C133.889 17.9047 140.833 16.9625 150.446 16.6069C160.283 16.243 173.577 17.5223 182.885 19.8077C189.332 21.3904 191.62 20.9008 197.7 15.8187C202.858 11.508 203.731 10.7035 206.063 9.5309C209.166 7.97084 211.868 7.25448 215.647 7.01991C223.837 6.51158 228.763 9.00177 230.755 16.6305C231.224 18.4239 231.804 20.6487 231.674 24.5542C231.53 28.8675 232.429 30.4415 231.471 33.3696C229.675 38.8629 225.817 42.4098 223.331 42.4098C221.832 42.4098 220.238 41.5711 219.023 39.2626C217.622 36.5998 215.767 30.4896 216.085 29.4375C216.46 28.1937 217.404 25.8063 219.771 24.4825C222.193 23.1284 225.17 21.7699 225.535 20.3168C225.909 18.8271 224.741 17.033 222.725 16.0009C220.443 14.8323 216.264 14.5554 213.71 15.4035C209.476 16.81 207.776 21.118 209.239 26.736C210.392 31.163 216.556 38.6322 223.259 46.627C226.825 50.8809 226.722 54.5687 228.349 70.9504C229.57 83.244 230.033 87.9769 230.997 91.0835C231.826 93.7582 232.376 94.2768 234.036 95.1235C237.685 96.9849 241.851 101.3 244.27 106.318C246.292 110.513 247.177 113.848 247.428 118.416C247.77 124.652 248.24 128.757 243.226 139.22C239.913 146.133 236.818 150.091 232.638 154.217C227.858 158.935 224.126 161.205 214.41 165.909C207.014 169.489 205.788 172.703 202.897 172.788C203.603 172.767 203.322 174.498 203.207 174.798C202.867 175.684 198.649 178.998 194.399 180.07C188.028 181.677 179.838 182.844 168.39 183.977C161.806 184.629 135.889 184.979 131.178 184.47ZM210.141 107.033C211.227 106.976 208.022 111.936 203.995 113.54C202.017 114.468 200.292 115.173 197.44 115.284C194.3 115.407 192.461 115.232 190.667 114.288C187.214 112.471 184.872 109.385 186.664 105.333C187.211 104.096 189.292 101.782 191.758 100.141C196.347 97.0879 197.469 95.8527 197.469 92.5263C197.469 89.7388 196.188 88.9007 192.275 86.9798C185.931 83.8651 179.764 84.1404 176.168 87.021C174.498 88.359 174.028 88.9431 174.048 91.2675C174.076 94.5243 175.004 94.4892 178.081 97.0035C180.985 99.3761 184.828 101.322 184.844 104.056C184.855 105.905 184.429 109.708 183.658 111.333C182.339 114.113 176.281 115.869 171.332 116.87C161.487 118.863 152.879 116.071 149.366 108.71L147.787 104.924L146.472 106.333C139.241 114.085 146.07 131.671 158.938 142.884C162.505 145.992 167.341 147.381 172.455 148.288C190.972 151.57 211.222 122.8 210.141 107.033Z" fill="#E5E5E5"/>
<path d="M74.8559 452.758C73.4501 452.612 70.6716 451.684 69.9238 451.182C67.6662 449.664 67.6348 447.418 71.8674 442.537C75.8628 437.929 77.9617 437.73 75.9719 437.73C73.1636 437.73 68.3112 444.889 67.4182 449.061C66.9772 451.121 65.3052 450.57 63.6513 448.005C61.8042 445.141 60.1431 442.218 62.0805 438.826C63.5098 436.324 66.8607 432.78 74.2702 425.65C78.9434 421.153 78.1441 421.411 74.949 419.162C70.9701 416.362 63.592 409.299 59.8071 404.798C49.7611 392.851 43.9374 379.365 40.2048 360.033C37.0672 343.782 37.4066 332.332 38.8939 330.245C39.4843 329.416 39.7292 330.113 42.9957 330.815C47.8365 331.854 61.3489 334.773 72.9253 336.323C78.2219 337.032 88.3844 338.571 95.0222 339.851C112.103 343.143 116.523 342.4 123.212 342.434C129.929 342.469 133.29 341.619 135.408 339.35C136.883 337.771 139.212 332.768 140.617 328.163L142.119 327.068L148.33 328.121C151.518 328.662 176.925 331.44 188.24 330L197.003 330.156L199.713 331.72C204.064 334.23 200.864 337.505 202.25 339.196C203.553 340.785 208.354 342.266 213.467 342.265C229.755 342.261 237.183 338.459 252.419 332.45L256.151 330.979L255.881 339.903C255.572 350.094 254.419 357.09 251.634 365.658C245.778 383.676 234.057 399.239 218.247 409.99C211.122 414.835 213.896 416.72 230.119 418.059C242.785 419.104 247.566 420.696 252.135 425.394C254.049 427.361 254.995 428.832 255.47 430.581C256.209 433.302 255.876 435.656 254.751 435.656C254.492 435.656 253.192 437.568 251.972 437.332C251.972 437.332 251.292 438.396 249.927 438.773C247.548 439.43 240.156 439.388 239.607 440.299C239.058 441.21 232.916 440.902 224.689 439.549C220.382 438.841 212.652 437.781 207.511 437.192C193.415 435.579 187.272 435.439 183.253 431.721C175.82 424.844 176.544 413.825 188.195 405.788C192.598 402.752 194.903 401.718 194.903 399.864C194.903 396.85 193.189 397.421 188.744 401.097C185.484 403.793 181.665 406.276 174.455 408.663C163.452 412.307 157.022 414.008 146.762 414.026C138.34 414.04 136.165 414.547 133.396 413.405C131.751 412.727 129.424 411.244 128.225 410.11C126.564 408.539 125.767 408.12 124.878 408.349C119.489 409.737 113.495 418.365 113.495 422.442C113.495 423.519 112.722 420.975 115.274 420.883C118.743 420.757 118.636 426.506 116.34 433.182C113.627 441.071 100.953 452.272 92.4983 453.647C90.2628 454.01 87.2068 453.27 86.0432 452.076C83.9359 449.914 82.1833 448.439 86.0901 443.104C88.3384 440.034 88.769 440.854 87.6035 440.854C85.2099 440.854 82.1509 447.822 82.1509 451.258C82.1509 452.518 80.99 452.674 79.3061 452.838C78.264 452.939 76.2616 452.903 74.8559 452.758Z" fill="#E5E5E5" stroke="black" stroke-width="0.511769" stroke-linecap="round" stroke-linejoin="round"/>
<path d="M72.6176 279.834C70.367 277.065 68.5336 271.03 70.2922 264.853C72.6323 256.633 77.7255 248.249 85.6557 245.654C105.779 239.068 123.743 258.879 123.443 267.993C123.172 276.234 112.551 283.227 108.994 285.074C102.906 288.234 94.8825 286.095 85.4809 282.851C78.3985 280.407 73.709 281.177 72.6176 279.834Z" fill="#E5E5E5"/>
<path d="M315.309 226.026C308.715 220.489 305.134 210.067 303.877 205.117C302.746 200.661 303.992 198.78 306.557 190.421C308.15 185.228 309.484 178.407 310.149 178.213C312.686 177.471 314.903 178.894 315.703 181.595C316.504 184.296 316.517 188.345 317.353 188.648C318.189 188.951 319.132 187.239 322.36 185.138C326.071 182.724 328.255 181.247 332.62 181.372C339.951 181.582 348.324 192.986 348.373 202.41C348.396 206.89 348.868 207.731 341.167 214.808C336.704 218.909 328.948 224.507 325.401 226.049L319.738 229.744L315.309 226.026Z" fill="#E5E5E5"/>
<mask id="mask0_864_52" style="mask-type:luminance" maskUnits="userSpaceOnUse" x="14" y="0" width="336" height="457">
<path d="M14.5879 0.951172V456.312H349.826V0.951172H14.5879ZM150.135 13.8359C150.248 13.8361 150.361 13.8354 150.475 13.8359C150.688 13.8369 150.9 13.8389 151.113 13.8419C151.397 13.8469 151.681 13.8543 151.965 13.8673C152.209 13.8778 152.453 13.8869 152.697 13.8829C152.944 13.8839 153.189 13.8879 153.436 13.8946C153.683 13.9026 153.931 13.9116 154.178 13.9317C154.368 13.9463 154.56 13.9426 154.75 13.9649C154.893 13.978 155.035 13.9892 155.18 13.9922C155.379 14.0035 155.579 14.0215 155.779 14.0255C155.988 14.0325 156.196 14.0407 156.404 14.0547C156.605 14.0677 156.807 14.054 157.008 14.0647C157.282 14.0707 157.556 14.0786 157.83 14.094C158.103 14.1089 158.376 14.124 158.648 14.135C158.96 14.1534 159.271 14.1779 159.582 14.2053C159.772 14.223 159.961 14.2482 160.152 14.2542C160.394 14.2646 160.637 14.2795 160.879 14.2775H162.084H163.021V14.2795C166.609 14.2795 166.609 17.9026 163.021 17.9026H162.084H160.879C160.585 17.9056 160.292 17.8879 159.998 17.8753C159.748 17.8693 159.5 17.8367 159.252 17.8148C158.98 17.7912 158.708 17.77 158.436 17.7542C158.168 17.7438 157.901 17.7296 157.633 17.7151C157.4 17.7021 157.167 17.6947 156.934 17.6897C156.707 17.6847 156.482 17.6857 156.256 17.678C156.06 17.6662 155.862 17.6547 155.666 17.6487C155.436 17.6447 155.208 17.6242 154.979 17.6116C154.793 17.6066 154.608 17.5907 154.424 17.5745C154.268 17.5605 154.113 17.5581 153.957 17.5491C153.747 17.5317 153.536 17.5239 153.326 17.5179C153.109 17.5119 152.891 17.5089 152.674 17.5079C152.387 17.5109 152.101 17.4999 151.814 17.4884C151.562 17.4771 151.307 17.4709 151.055 17.4669C150.855 17.4629 150.657 17.4619 150.457 17.4609C150.409 17.4607 150.359 17.461 150.311 17.4609C150.3 17.4649 150.289 17.4679 150.278 17.4726C150.265 17.4776 150.251 17.4839 150.24 17.4882C150.183 17.5134 150.126 17.5372 150.069 17.5624V17.5644V17.5664C150.059 17.5694 150.05 17.5744 150.04 17.5781L150.03 17.5821C150.006 17.5928 149.996 17.5978 149.977 17.6055C149.753 17.7276 149.507 17.7874 149.258 17.8301C149.087 17.8536 148.914 17.8535 148.742 17.8555C148.619 17.8565 148.496 17.8575 148.373 17.8575C148.291 17.8576 148.207 17.8574 148.125 17.8575C148.072 17.8575 148.018 17.8575 147.965 17.8575H147.942C144.354 17.8577 144.354 14.2347 147.942 14.2345H147.965C148.018 14.2345 148.07 14.2345 148.123 14.2345C148.204 14.2344 148.284 14.2346 148.365 14.2345C148.459 14.2336 148.553 14.2335 148.646 14.2325C148.66 14.2265 148.673 14.2204 148.688 14.2148C148.704 14.2078 148.717 14.2032 148.727 14.1992C148.738 14.1942 148.75 14.188 148.763 14.1817C148.937 14.1072 149.112 14.0341 149.293 13.9766C149.568 13.8955 149.849 13.829 150.138 13.836L150.135 13.8359Z" fill="white"/>
</mask>
<g mask="url(#mask0_864_52)">
<path d="M70.3716 455.063C41.5788 448.102 73.2237 425.484 74.3728 419.835C44.8313 401.123 34.6999 365.769 36.6947 331.399C22.5118 318.874 32.7379 292.325 35.4335 276.26C8.31756 262.405 11.7535 227.535 22.7695 205.319C35.7177 179.206 54.1213 148.951 71.1619 152.803C60.7083 140.133 64.5738 107.513 68.3345 93.5078C72.9855 76.1864 80.0448 65.1653 83.2942 60.3296C65.8928 56.5526 51.8317 23.535 70.1841 7.88395C94.4803 -12.836 109.548 18.2741 122.647 18.7425C132.835 16.3894 136.461 16.4577 145.43 16.8558C146.835 16.9181 163.286 16.954 165.074 17.0236C168.81 17.1689 175.96 17.3239 179.168 17.3085C187.566 17.2681 191.525 13.6058 206.208 4.48932C234.201 -9.20458 247.893 35.3813 225.408 49.3092C229.382 48.6416 232.235 92.0549 234.015 92.6945C239.569 95.6189 242.805 101.638 246.39 108.866C253.921 124.316 243.641 144.834 234.088 154.759C249.211 167.829 267.191 190.665 279.239 206.46C280.809 208.517 288.476 205.886 295.604 200.881C299.525 198.128 299.327 201.891 300.5 200.334C302.26 197.996 304.373 192.597 305.862 188.545C307.164 185.005 307.204 180.425 308.963 177.662C313.481 174.5 317.184 177.769 317.05 182.881C316.473 191.42 319.73 186.394 325.183 183.296C343.064 173.325 358.529 202.39 344.189 214.729C338.467 219.599 321.954 226.976 322.91 232.884C323.388 235.84 305.428 245.361 294.453 250.024C279.682 256.3 264.062 259.922 264.452 273.647C262.79 296.148 279.942 308.298 265.691 327.268C263.262 329.726 259.414 331.188 258.392 333.467C254.038 343.182 259.82 352.421 247.606 380.303C236.946 404.641 214.532 413.592 222.418 413.701C241.856 413.971 252.317 418.621 255.639 426.601C257.998 432.268 259.689 442.847 239.448 443.796C222.07 444.61 192.65 442.843 180.668 434.515C176.611 431.696 174.034 425.397 175.424 420.345C179.775 404.525 159.824 427.956 128.642 415.513C117.101 411.333 119.51 425.103 117.933 432.985C114.129 451.993 88.8499 459.53 70.3716 455.063ZM81.1934 451.736C81.0494 445.045 88.1832 438.509 89.7986 438.844C90.7519 439.041 84.369 445.063 84.2629 447.994C84.4023 456.837 100.304 451.854 108.889 442.97C116.871 434.71 118.166 423.208 112.504 423.676C107.952 424.052 124.31 402.976 126.984 406.407C136.181 418.503 169.793 414.451 182.226 403.551C193.02 394.087 203.514 397.003 188.856 406.523C176.066 414.83 177.356 426.711 185.413 432.01C192.524 436.687 206.198 436.504 214.313 437.79C222.242 439.046 230.306 439.938 238.342 439.797C241.175 439.747 244.058 439.573 246.781 438.792C248.478 438.305 250.034 437.402 251.573 436.537C252.306 436.125 253.482 435.459 253.677 435.143C255.017 432.984 253.848 428.786 251.967 426.553C246.887 420.527 241.384 418.714 229.895 418.074C219.147 417.475 208.568 415.758 215.186 411.689C240.82 395.927 256.079 368.187 254.336 333.868C232.912 342.303 224.188 344.867 204.311 343.393C198.68 342.975 198.346 331.707 198.346 331.707C198.346 331.707 155.005 329.858 140.526 328.354C140.526 328.354 138.199 336.534 135.509 340.97C129.312 351.188 94.8954 339.905 74.707 337.835C63.1566 336.651 46.0413 333.656 40.28 332.533C37.0806 331.909 38.0719 342.222 39.7147 352.169C43.2052 373.302 46.0816 382.827 54.0915 395.925C60.0531 405.673 72.6661 416.755 78.2173 420.284C83.7998 423.833 50.8812 438.395 65.8645 449.799C68.4277 440.211 76.0387 435.9 77.0015 437.513C77.5528 438.437 73.4942 441.877 69.9231 446.23C65.7835 452.443 77.614 452.734 81.1934 451.736ZM128.888 338.838C138.913 328.389 131.688 327.303 121.361 326.544C111.146 325.793 97.8975 325.344 94.9661 319.581C88.9624 307.777 97.2524 287.282 97.2524 287.282C97.2524 287.282 91.5205 287.731 83.6404 283.269C81.7219 282.183 75.4863 282.951 75.4863 282.951C73.7048 283.526 75.1766 284.672 71.7925 284.983C62.8015 285.809 38.3243 277.683 38.3243 277.683C36.1811 279.364 34.4685 290.083 33.1683 299.83C30.269 321.565 33.0964 329.938 53.9639 332.401C78.7774 335.331 119.067 344.917 128.888 338.838ZM237.747 336.945C255.328 332.181 275.295 323.285 266.375 300.044C259.344 281.033 259.502 264.608 254.646 228.571C253.673 221.349 240.14 184.613 252.203 207.431C260.637 223.54 270.712 253.794 281.688 251.323C292.359 248.92 311.675 239.494 317.649 232.671C319.042 231.081 309.213 225.432 305.26 218.676C301.234 211.797 299.196 203.481 297.17 203.462C292.54 203.418 282.005 212.833 276.712 207.302C271.67 202.033 266.256 195.429 259.498 185.38C255.386 179.266 248.467 171.39 242.855 166.42C229.285 154.401 229.537 159.097 229.808 169.399C229.888 172.438 231.167 177.066 228.903 180.362C221.026 192.069 233.009 193.213 226.386 211.966C222.994 220.373 208.737 247.012 206.727 243.23C213.054 222.355 236.213 199.714 216.678 183.017C235.929 180.915 222.525 155.727 209.79 171.75C207.098 197.416 201.015 223.04 202.382 248.819C202.543 251.856 215.451 250.68 218.214 255.733C223.097 264.662 218.474 275.308 216.87 286.269C215.265 297.23 206.544 329.012 202.895 331.277C202.895 331.277 200.829 337.437 204.618 339.523C211.495 343.309 228.833 339.361 237.747 336.945ZM202.43 328.532C204.2 326.938 213.471 292.771 216.464 272.394C217.757 263.594 216.225 258.516 215.153 257.838C198.962 247.607 169.016 250.759 145.809 248.386C135.232 247.305 118.257 245.659 113.988 246.21C112.395 246.415 112.056 248.941 112.395 249.372C112.395 249.372 129.697 262.423 125.346 271.156C116.025 289.861 99.9109 287.345 99.9109 287.345C99.9109 287.345 83.6887 321.481 110.445 323.019C140.566 324.75 199.412 330.893 202.43 328.532ZM70.4519 280.809C66.3606 275.86 68.0257 265.016 70.4519 259.354C73.2551 252.807 79.7358 247.162 82.6728 244.567C84.1993 243.218 76.4299 241.45 71.9856 240.1C59.9091 237.489 41.7458 224.411 63.561 233.359C69.1409 235.584 68.8399 218.71 75.2165 218.069C79.464 217.641 69.1331 228.225 71.2121 233.093C72.7172 236.617 79.4897 239.606 86.1059 241.607C88.5844 242.357 87.6697 243.623 87.6697 243.623C90.5992 243.461 98.2118 244.138 100.819 244.89C106.829 246.624 109.987 248.446 109.987 248.446C110.073 242.78 112.328 242.077 119.279 242.697C128.773 243.544 138.338 244.091 138.338 244.091C140.659 243.316 136.46 233.426 131.361 225.599C120.212 205.88 113.359 179.577 91.2395 168.287C88.2772 166.775 82.0487 160.621 80.5413 161.187C77.3564 162.384 84.4148 185.16 98.9831 184.452C111.243 183.856 84.3783 194.301 102.208 209.97C107.467 214.591 122.411 230.609 123.431 234.078C123.898 235.667 114.537 225.452 110.303 220.933C104.516 214.753 97.4538 211.077 93.5437 201.849C91.1101 196.105 99.6592 186.276 99.6592 186.276C94.1138 187.309 88.0034 184.016 82.9477 176.803C75.5939 164.463 81.4152 165.39 73.905 157.374C56.7578 144.614 38.6248 183 29.9537 196.664C16.5018 217.861 14.7996 243.334 29.5192 264.038C36.4331 273.762 50.8094 278.075 70.4538 280.809H70.4519ZM88.2307 282.339C94.7358 285.483 104.794 286.849 111.614 283.068C117.865 279.602 124.421 271.393 122.401 264.538C118.636 251.761 99.7659 243.442 86.783 246.421C78.3198 248.362 72.7301 258.654 71.0347 267.17C70.1554 271.587 70.6764 279.154 74.458 280.239C77.9492 281.241 82.5278 279.583 88.2307 282.339ZM319.501 228.669C319.501 228.669 324.214 225.479 329.94 221.221C333.932 218.252 346.763 209.533 346.562 200.685C346.26 187.303 333.579 172.44 320.039 187.984C315.445 193.259 315.383 185.494 314.605 180.331C313.992 177.777 311.352 178.146 310.382 179.224C309.453 180.255 309.065 186.339 307.391 192.265C297.736 202.126 319.501 228.669 319.501 228.669ZM200.053 172.896C209.295 164.798 222.807 164.655 235.474 149.59C239.083 145.298 244.208 134.066 246.253 127.827C250.9 111.89 241.083 98.1172 232.884 94.5635C228.736 89.4827 229.092 71.3175 226.679 56.8621C225.499 49.7912 222.651 47.4826 222.651 47.4826C217.256 40.5608 207.993 30.1954 208.93 21.6322C210.106 8.7636 237.406 17.0457 219.125 25.8558C213.275 29.1423 217.549 33.024 217.469 35.8163C226.43 60.9466 244.481 6.20029 217.313 6.99854C198.247 6.70303 197.277 25.0363 182.885 19.8088C161.251 14.8316 139 15.8098 122.035 21.0712C110.422 24.6727 91.7708 -9.78699 72.0054 8.71573C52.8006 26.6936 63.8481 54.655 85.9497 59.6025C75.7079 69.0669 43.0405 152.596 93.2085 164.186C100.959 168.748 144.056 177.687 114.458 176.722C115.619 191.246 215.4 180.372 200.053 172.896ZM168.204 168.88C153.793 163.277 206.265 157.808 182.303 167.896C177.785 169.294 172.871 169.688 168.204 168.88ZM159.735 144.736C148.918 136.205 135.882 115.173 147.808 105.166C152.44 120.213 174.18 119.509 181.113 112.347C182.467 110.949 183.352 109.039 183.73 107.131C184.09 105.313 184.602 103.325 183.318 101.586C182.032 99.8439 179.219 99.8352 176.739 98.0518C167.416 91.3452 174.488 85.8344 181.396 84.8935C192.433 83.3904 207.684 88.704 190.193 103.077C183.314 108.73 187.614 114.329 193.85 115.224C200.848 116.228 210.324 111.759 209.953 103.642C214.12 117.457 204.089 138.391 190.695 146.521C181.858 151.885 167.851 151.138 159.735 144.736ZM179.69 145.912C182.428 133.723 139.845 131.784 166.424 144.913C170.602 146.543 175.317 147.143 179.69 145.912ZM190.9 131.368C195.595 115.388 183.56 115.224 178.569 119.125C173.933 122.749 176.035 128.015 178.134 131.613C179.356 133.708 190.432 132.96 190.9 131.368ZM189.47 98.0279C210.584 83.5084 157.942 85.3196 183.606 97.8936L186.936 99.6159L189.47 98.0279ZM136.566 80.0411C128.209 68.4382 148.976 64.4478 144.503 78.2078C143.662 81.9875 138.968 81.783 136.566 80.0411ZM202.693 78.2473C194.93 65.9745 215.813 63.438 208.905 78.0885C207.353 79.7864 204.273 80.1651 202.693 78.2473ZM90.0247 49.2789C71.9585 44.58 96.917 43.0283 94.1914 36.627C93.134 33.4015 91.2597 29.6532 90.0566 27.765C84.8872 19.652 79.3745 25.2909 78.3594 19.8645C76.9393 12.2731 85.8197 12.8063 89.6394 15.2883C95.6146 18.8187 108.124 55.1049 90.0247 49.2789Z" fill="black"/>
</g>
<path d="M167.683 100.811C167.683 100.811 151.622 89.7672 124.305 88.6228C112.878 88.1442 99.4816 89.3976 84.4677 93.9162C82.6765 94.4553 112.364 91.8286 126.247 92.9723C140.256 94.1263 167.683 100.811 167.683 100.811Z" fill="black"/>
<path d="M254.307 87.7648C254.307 87.7648 248.843 83.3072 232.736 87.3366C225.999 89.0221 217.108 90.1534 206.442 96.9834C205.169 97.7982 223.775 90.7079 231.82 89.1648C239.763 87.6415 254.307 87.7648 254.307 87.7648Z" fill="black"/>
<path d="M257.432 111.741C257.432 111.741 256.908 103.409 240.944 100.26C234.266 98.9429 224.887 98.5327 211.714 100.019C210.142 100.196 230.106 101.744 237.786 103.719C245.368 105.67 257.432 111.741 257.432 111.741Z" fill="black"/>
<path d="M168.672 104.271C168.672 104.271 155.109 99.2206 134.123 102.647C125.345 104.08 115.268 106.997 104.341 112.387C103.038 113.03 125.542 107.245 136.359 105.886C147.037 104.544 168.672 104.271 168.672 104.271Z" fill="black"/>
<path d="M246.428 440.227C249.391 436.662 243.918 433.038 238.636 432.707C238.636 432.707 247.868 434.957 242.803 441.236C241.927 442.322 245.626 441.192 246.428 440.227Z" fill="black" stroke="black" stroke-width="2" stroke-linecap="round" stroke-linejoin="round"/>
<path d="M254.07 436.259C254.879 435.845 253.179 428.456 244.271 426.564C244.271 426.564 247.636 427.442 250.661 430.486C254.716 434.568 249.547 440.091 253.122 437.953C254.407 437.185 253.076 436.769 254.07 436.259Z" fill="black" stroke="black" stroke-width="2" stroke-linecap="round" stroke-linejoin="round"/>
<path d="M17.3037 140.496C17.3037 140.496 1.89742 152.629 2.18112 173.828" stroke="black" stroke-width="4" stroke-linecap="round" stroke-linejoin="round"/>
<path d="M43.6826 136.568C43.6826 136.568 17.5197 143.993 12.9235 176.166" stroke="black" stroke-width="4" stroke-linecap="round" stroke-linejoin="round"/>
<path d="M161.711 274.495C160.043 274.15 158.34 274.899 157.467 276.361L139.844 305.861C138.711 307.757 137.161 310.107 137.161 310.107C139.057 311.24 146.329 309.251 148.7 305.189L158.268 290.35L161.205 308.863C161.847 312.776 167.424 315.18 169.614 314.892C169.614 314.892 169.291 312.839 169.004 310.649L164.701 277.903C164.48 276.214 163.379 274.84 161.711 274.495Z" fill="black"/>
<path d="M155.175 302.921C156.806 302.27 158.005 299.109 158.005 299.109C158.005 299.109 143.73 293.321 139.424 293.488C135.793 293.628 134.839 297.712 134.839 297.712C134.839 297.712 150.252 304.885 155.175 302.921Z" fill="black" stroke="white" stroke-width="2.64649" stroke-linecap="round" stroke-linejoin="round"/>
<path d="M163.049 269.445C163.049 269.445 163.499 265.847 160.704 265.319C160.704 265.319 164.008 265.828 164.831 263.045C164.831 263.045 164.236 265.684 167.158 266.953C167.158 266.953 163.836 266.531 163.049 269.445Z" stroke="black" stroke-width="2.92974" stroke-linecap="round" stroke-linejoin="round"/>
<path d="M209.672 340.791C206.401 340.371 204.322 339.544 203.445 338.311C202.125 336.458 202.175 332.364 203.537 330.746C203.901 330.312 204.471 329.421 204.804 328.764C208.335 321.796 214.848 299.166 216.922 286.654C217.219 284.867 217.954 281.074 218.556 278.227C220.177 270.564 220.502 268.003 220.359 264.029C220.262 261.335 220.111 260.265 219.609 258.727C218.033 253.89 216.396 252.806 208.173 251.153C204.254 250.365 202.736 249.749 202.513 248.858C202.428 248.521 202.419 244.005 202.492 238.824C202.674 225.852 203.12 221.266 206.554 197.029C207.713 188.848 208.943 179.872 209.287 177.083C209.632 174.294 210.023 171.808 210.156 171.558C210.29 171.308 211.105 170.45 211.968 169.651C215.992 165.927 220.442 165.608 223.65 168.817C225.795 170.962 226.689 174.342 225.811 176.988C224.915 179.684 221.917 181.952 218.422 182.577C217.528 182.736 216.75 182.904 216.692 182.948C216.635 182.993 217.374 183.845 218.334 184.842C220.434 187.023 221.451 188.477 222.543 190.861C224.786 195.755 224.703 201.629 222.291 208.688C220.962 212.577 219.909 214.853 214.439 225.653C209.642 235.128 206.891 241.355 206.828 242.887C206.773 244.215 207.554 244.008 209.263 242.241C212.138 239.267 217.17 231.006 222.434 220.618C226.615 212.366 227.865 208.842 228.428 203.719C228.781 200.513 228.462 197.732 227.247 193.404C225.723 187.976 225.932 185.799 228.39 181.507C230.444 177.92 230.422 178.1 230.052 168.242C229.782 161.01 230.139 159.529 232.162 159.529C235.272 159.529 244.007 166.851 252.45 176.535C255.124 179.603 257.129 182.246 261.166 188.029C266.615 195.835 270.361 200.602 274.997 205.63C277.693 208.553 278.642 209.082 281.148 209.059C283.391 209.038 285.446 208.373 290.547 206.021C292.884 204.943 295.338 203.926 295.999 203.762C297.959 203.274 298.117 203.501 302.019 212.356C305.191 219.555 306.906 221.899 313.026 227.4C314.939 229.12 316.788 230.925 317.134 231.411L317.763 232.295L316.53 233.553C311.581 238.604 298.216 245.837 286.672 249.711C281.288 251.518 279.8 251.659 277.608 250.573C275.517 249.538 273.827 248.003 271.713 245.219C268.085 240.439 264.597 233.82 257.415 218.081C252.444 207.189 248.532 200.029 247.552 200.029C246.597 200.029 247.128 202.419 251.05 215.779C252.483 220.661 253.828 225.386 254.039 226.279C254.526 228.346 256.016 239.977 257.8 255.654C260.597 280.237 261.901 287.27 265.779 298.689C268.071 305.436 268.293 306.494 268.295 310.654C268.295 313.63 268.209 314.433 267.711 316.019C264.576 326.003 254.848 332.452 235.491 337.378C224.435 340.192 214.866 341.456 209.672 340.791Z" fill="white"/>
<path d="M63.9219 279.658C47.2638 276.686 37.8196 272.829 31.871 266.566C28.3082 262.816 24.1668 255.415 22.095 249.096C17.9742 236.528 18.4105 223.83 23.4407 209.931C24.5261 206.931 27.9716 200.081 30.2444 196.404C31.2643 194.754 33.6489 190.761 35.5436 187.529C43.5634 173.852 48.5177 166.885 53.952 161.642C56.8177 158.877 59.3333 157.08 61.8741 155.984C63.6835 155.203 63.9673 155.154 66.6849 155.154C69.5203 155.154 69.6074 155.171 71.4778 156.096C73.5411 157.116 75.0251 158.538 76.6819 161.085C77.5868 162.475 77.8222 163.198 78.9019 167.904C79.5782 170.852 82.1237 176.057 84.1116 178.557C88.0115 183.461 92.3743 186.16 96.9412 186.495L99.1224 186.654L97.6465 188.654C94.6726 192.685 92.6478 197.83 93.0306 200.382C93.2463 201.821 94.7888 204.945 96.4161 207.24C98.1732 209.718 100.481 212.105 105.139 216.262C107.289 218.181 110.791 221.633 112.922 223.934C121.526 233.224 124.536 235.958 123.142 233.217C121.569 230.126 114.908 222.471 106.352 213.923C102.784 210.358 99.4182 206.877 98.8731 206.188C97.491 204.439 96.6939 202.764 96.2645 200.705C95.5155 197.112 96.677 193.748 100.415 188.684C101.538 187.162 102.422 185.714 102.422 185.396C102.422 184.603 101.339 184.279 98.6871 184.279C97.499 184.279 95.8669 184.107 95.0601 183.897C90.2526 182.645 85.6041 178.254 82.5513 172.082C80.5461 168.028 79.4197 163.185 80.16 161.802C80.7085 160.777 81.6003 161.248 86.9669 165.397C88.573 166.638 91.0835 168.329 92.546 169.154C96.173 171.2 100.054 174.157 103.047 177.153C109.174 183.288 113.911 190.538 120.12 203.279C128.454 220.383 130.315 224.068 132.178 227.164C134.825 231.563 137.477 237.083 138.282 239.87C139.002 242.363 139.059 243.004 138.609 243.595C138.322 243.974 137.893 243.978 133.172 243.648C130.353 243.451 125.853 243.108 123.172 242.886C116.014 242.295 113.709 242.332 112.249 243.065C110.854 243.764 110.205 244.858 109.999 246.858L109.858 248.217L108.007 247.362C102.959 245.03 97.9906 243.917 91.2344 243.605C88.3508 243.472 87.9219 243.397 87.9219 243.029C87.9219 242.282 87.0913 241.816 83.6595 240.641C77.6361 238.579 73.5852 236.28 71.9043 233.97C71.1762 232.97 71.1339 232.792 71.2178 231.085C71.3038 229.342 71.4162 229.052 73.8912 224.191C75.3124 221.399 76.434 218.899 76.3838 218.635C76.3178 218.288 76.0503 218.135 75.4197 218.084C73.3953 217.923 71.5977 219.889 70.0208 223.99C67.6894 230.053 67.3115 230.962 66.7518 231.85C66.424 232.37 65.7903 232.969 65.3438 233.182C64.5593 233.556 64.4401 233.534 61.7896 232.514C60.2811 231.934 58.2031 231.194 57.1719 230.869C55.251 230.265 53.1719 230.086 53.1719 230.525C53.1719 231.463 56.661 233.88 61.4493 236.259C65.3747 238.21 68.0967 239.189 75.0076 241.138C79.8447 242.502 82.6719 243.576 82.6719 244.05C82.6719 244.179 81.0939 245.82 79.1651 247.696C71.1523 255.491 68.3876 261.15 68.002 270.548C67.8346 274.627 68.1934 277.001 69.3096 279.201C69.6452 279.863 69.9202 280.432 69.9207 280.467C69.9207 280.648 68.0776 280.4 63.9219 279.658Z" fill="white"/>
<path d="M112.178 340.52C105.038 340.053 97.272 339.008 78.7968 336.024C65.5694 333.888 60.281 333.089 54.0468 332.282C40.7236 330.558 34.9234 326.787 33.0034 318.601C32.3116 315.651 32.3779 306.642 33.1337 300.904C34.452 290.895 35.9391 283.169 37.1517 280.029C38.0692 277.653 37.9822 277.69 40.6306 278.542C52.7713 282.446 64.4973 285.029 70.0832 285.029C73.1329 285.029 73.6289 284.893 74.6855 283.763C75.2349 283.176 75.598 283.055 77.2868 282.897C80.6803 282.579 82.3735 282.851 85.0009 284.138C88.8329 286.014 93.0793 287.279 95.5485 287.279C96.1501 287.279 96.7033 287.377 96.7778 287.498C96.8518 287.618 96.6285 288.547 96.2807 289.56C95.285 292.463 93.9792 297.629 93.413 300.904C91.7815 310.34 93.1044 318.967 96.6059 321.722C99.995 324.389 104.826 325.417 119.172 326.523C126.211 327.066 127.981 327.289 130.02 327.891C134.587 329.24 134.672 331.89 130.314 337.013C128.614 339.012 127.437 339.642 124.413 340.17C121.805 340.625 116.235 340.785 112.178 340.52Z" fill="white"/>
<path d="M180.452 132.509C179.85 132.391 179.078 132.111 178.737 131.888C178.006 131.409 176.544 128.375 176.143 126.504C175.18 122.015 177.852 118.444 182.973 117.376C186.905 116.557 190.167 118.219 191.353 121.646C191.917 123.274 191.867 126.959 191.247 129.529C190.832 131.246 190.72 131.44 189.916 131.834C188.223 132.664 183.101 133.029 180.452 132.509Z" fill="white"/>
<path d="M183.672 97.7715C179.893 95.8149 177.704 94.1798 176.943 92.7456C176.402 91.726 176.38 91.5591 176.698 90.8986C177.145 89.9676 178.398 89.1294 180.156 88.5847C181.24 88.249 182.458 88.1553 185.672 88.1604C189.423 88.1664 189.933 88.2208 191.297 88.7628C195.063 90.259 195.385 92.546 192.255 95.571C190.799 96.9774 187.487 99.2825 186.94 99.2695C186.724 99.2645 185.253 98.5902 183.672 97.7715Z" fill="white"/>
<path d="M172.39 146.281C169.711 145.949 166.945 145.08 164.672 143.856C161.082 141.923 158.737 140.113 158.014 138.716C157.679 138.067 157.681 137.927 158.029 137.394C159.52 135.119 168.834 135.849 174.498 138.684C177.718 140.296 179.671 142.612 179.671 144.818C179.671 145.696 179.608 145.776 178.734 146.001C177.293 146.374 174.229 146.509 172.39 146.281Z" fill="white"/>
</svg>
