<svg width="370" height="371" viewBox="0 0 370 371" fill="none" xmlns="http://www.w3.org/2000/svg">
<path d="M244.099 107.129C244.455 107.035 245.988 106.616 246.259 105.015C246.594 103.04 245.585 96.471 241.114 79.9442C239.397 73.5971 237.195 65.9737 234.915 58.9719C233.873 55.773 232.799 52.6556 231.746 49.8709C230.744 47.2178 229.72 44.7566 228.728 42.7929C226.88 39.1297 224.749 35.9138 222.313 33.2457C219.929 30.6352 217.28 28.5791 214.386 27.1521C211.466 25.7128 208.427 24.9779 205.365 24.8702C202.204 24.7592 199.144 25.319 196.269 26.3132C192.971 27.452 189.052 29.3694 185.484 32.7202C183.546 34.5398 181.82 36.6823 180.372 39.1722C179.076 41.4012 178.047 43.8329 177.277 46.4482C177.105 47.0311 176.945 47.6304 176.796 48.2466C175.163 54.9977 174.943 63.7452 177.222 75.1658C179.454 86.3461 184.062 100.024 191.96 116.807L199.018 112.837C198.897 112.833 195.235 107.602 189.856 100.88C183.739 93.236 176.213 84.6228 168.202 77.2581C163.675 73.0973 159.263 69.5824 155.015 66.8167C149.973 63.5335 145.437 61.4842 141.376 60.4673C138.88 59.8426 136.65 59.6291 134.67 59.708C132.453 59.7964 130.619 60.2489 129.153 60.8284C128.892 60.9317 128.645 61.0398 128.412 61.151C125.781 62.4077 124.471 64.2977 123.542 65.4557C122.976 66.1619 122.538 66.6802 121.716 67.5967C120.878 68.5309 119.729 69.7916 118.806 70.8756C116.635 73.427 113.847 76.6642 112.204 81.2293C111.91 82.0478 111.625 82.9327 111.365 83.8821C110.295 87.7893 109.756 92.4366 110.42 97.8211C110.966 102.248 112.274 106.742 114.278 111.219C116.192 115.495 118.627 119.504 121.273 123.112C125.824 129.318 130.728 134.033 134.461 136.79C135.806 137.784 137.178 138.638 138.51 139.345C145.539 143.076 149.613 141.63 150.07 140.902C150.697 139.903 150.645 136.935 145.39 130.686C144.502 129.63 143.507 128.538 142.444 127.47C139.486 124.495 134.933 120.53 130.374 115.64C127.716 112.789 125.163 109.734 122.954 106.474C120.651 103.075 118.863 99.6605 117.658 96.2111C116.193 92.0147 115.729 88.1542 115.904 84.6439C115.946 83.7917 116.026 82.9826 116.13 82.2207C116.704 78.0354 117.647 74.1074 119.087 71.057C119.746 69.6599 120.522 68.4264 121.488 67.3885C122.268 66.5511 123.011 66.0246 123.707 65.6539C124.974 64.9789 127.133 64.4006 129.372 63.9909C129.581 63.9524 129.8 63.9144 130.027 63.8779C131.296 63.673 132.802 63.5715 134.58 63.7482C136.167 63.906 137.972 64.2856 140.027 65.0114C143.381 66.196 147.269 68.2566 151.768 71.5371C155.56 74.3016 159.571 77.7774 163.759 81.9205C171.173 89.2564 178.242 97.803 183.977 105.44C189.009 112.141 192.389 117.36 192.268 117.356L199.327 113.386C191.79 96.9245 187.607 83.8643 185.685 73.532C183.725 62.9937 184.174 55.6025 185.524 50.4297C185.647 49.9571 185.778 49.5023 185.916 49.0649C186.532 47.1036 187.319 45.3727 188.25 43.8534C189.286 42.162 190.486 40.7576 191.797 39.5924C194.212 37.446 196.898 36.2059 199.281 35.4782C201.251 34.8806 203.127 34.6435 204.898 34.7647C206.592 34.8806 208.245 35.3268 209.871 36.1639C211.499 37.0022 213.165 38.267 214.831 40.0858C216.546 41.9588 218.218 44.3721 219.807 47.3851C220.596 48.8786 221.516 50.9558 222.518 53.4585C223.553 56.0418 224.642 58.9932 225.732 62.0842C228.086 68.7586 230.543 76.3686 232.509 82.4878C237.814 98.9995 239.636 104.54 241.173 106.381C242.206 107.619 243.741 107.224 244.099 107.129Z" fill="black"/>
<path d="M187.293 196.245C187.322 196.559 187.53 197.701 189.211 197.867C189.463 197.892 189.762 197.898 190.114 197.881C191.309 197.82 193.527 197.438 196.272 196.32C198.392 195.456 201.046 194.056 203.531 191.856C205.765 189.88 207.918 187.209 209.366 183.645C210.728 180.29 211.309 176.688 211.098 172.978C210.89 169.32 209.917 165.646 208.274 162.082C204.735 154.402 198.346 147.719 190.6 142.469C186.598 139.756 182.131 137.523 177.319 136.102C172.845 134.781 168.142 134.187 163.405 134.545C158.783 134.894 154.218 136.144 149.914 138.405C145.551 140.696 141.578 143.961 138.134 148.165C134.532 152.56 132.515 156.591 131.455 160.105C130.269 164.035 130.27 167.346 130.635 169.812C131.103 172.962 132.198 175.058 132.899 176.046C133.109 176.34 133.307 176.575 133.489 176.758C134.714 177.978 135.731 177.326 135.976 177.128C136.236 176.917 136.995 176.206 136.786 174.908C136.753 174.704 136.7 174.475 136.629 174.201C136.434 173.459 135.764 171.421 135.524 169.175C135.323 167.299 135.322 164.702 136.248 161.53C137.079 158.683 138.709 155.188 141.879 151.184C144.883 147.389 148.312 144.455 152.055 142.372C155.749 140.317 159.703 139.116 163.767 138.71C167.939 138.293 172.158 138.722 176.243 139.856C180.636 141.075 184.765 143.079 188.48 145.597C195.824 150.575 201.512 156.887 204.454 163.781C205.812 166.963 206.521 170.13 206.594 173.167C206.667 176.238 206.09 179.132 204.931 181.782C203.729 184.526 202.011 186.561 200.237 188.094C198.246 189.816 196.092 190.984 194.326 191.79C192.01 192.848 190.271 193.377 189.236 193.813C188.952 193.933 188.717 194.043 188.521 194.151C187.256 194.852 187.264 195.92 187.293 196.245Z" fill="black"/>
<path d="M168.769 224.508C168.825 224.756 169.235 225.923 171.73 225.629C172.095 225.587 172.527 225.513 173.03 225.4C174.657 225.035 177.842 224.053 181.26 222.086C182.636 221.294 184.129 220.294 185.539 219.061C186.825 217.936 188.098 216.57 189.138 214.937C190.113 213.407 190.897 211.62 191.272 209.57C191.627 207.622 191.603 205.486 191.062 203.173C190.09 199.019 188.356 195.307 185.988 192.032C183.751 188.938 181.018 186.331 178.008 184.141C175.096 182.022 171.966 180.324 168.86 178.964C165.797 177.622 162.779 176.619 160.057 175.868C157.865 175.273 155.274 174.682 152.462 174.389C149.588 174.09 146.525 174.105 143.44 174.713C140.216 175.349 137.073 176.612 134.147 178.702C131.019 180.936 128.282 184.012 125.967 187.973C125.496 188.779 125.051 189.758 124.643 190.882C124.25 191.963 123.882 193.202 123.558 194.574C122.94 197.189 122.468 200.343 122.312 203.801C122.163 207.12 122.303 210.748 122.904 214.407C123.494 217.991 124.53 221.628 126.186 225.021C126.488 225.672 126.898 226.218 127.386 226.667C127.865 227.111 128.39 227.438 128.897 227.687C129.403 227.936 129.917 228.119 130.387 228.264C130.859 228.409 131.338 228.531 131.753 228.635C132.68 228.869 133.299 229.028 133.82 229.262C134.065 229.372 134.232 229.476 134.348 229.568C134.462 229.659 134.534 229.745 134.59 229.829C140.865 238.382 148.785 244.436 157.278 248.157C164.874 251.485 172.07 252.576 177.308 252.763C184.899 253.033 190.775 251.267 193.052 250.769C190.906 250.751 184.49 250.127 177.677 249.001C172.738 248.185 166.248 246.795 159.391 243.527C151.781 239.899 144.679 234.392 138.924 226.633C138.477 226.036 137.949 225.555 137.376 225.174C136.827 224.808 136.257 224.546 135.705 224.35C134.674 223.983 133.596 223.814 132.77 223.684C132.338 223.615 131.981 223.56 131.64 223.493C131.307 223.428 131.053 223.364 130.845 223.297C130.647 223.233 130.516 223.174 130.436 223.133C130.361 223.096 130.294 223.058 130.234 222.984C128.731 220.098 127.721 216.914 127.105 213.666C126.477 210.354 126.267 207.024 126.339 203.94C126.414 200.728 126.793 197.812 127.314 195.429C127.587 194.181 127.896 193.086 128.22 192.16C128.56 191.191 128.906 190.434 129.23 189.88C131.316 186.311 133.726 183.684 136.367 181.851C138.831 180.139 141.465 179.141 144.176 178.675C146.784 178.226 149.418 178.278 151.956 178.625C154.441 178.964 156.762 179.576 158.781 180.216C161.32 181.008 164.094 182.026 166.875 183.337C169.698 184.668 172.466 186.27 174.99 188.196C177.595 190.185 179.874 192.467 181.701 195.083C183.628 197.841 185.025 200.928 185.815 204.387C186.184 206.005 186.177 207.398 185.959 208.603C185.727 209.88 185.242 211.031 184.595 212.077C183.897 213.204 183.003 214.222 182.019 215.134C180.941 216.131 179.759 216.998 178.616 217.737C175.984 219.441 172.817 220.885 171.655 221.465C171.229 221.677 170.878 221.86 170.581 222.029C168.582 223.166 168.693 224.182 168.769 224.508Z" fill="black"/>
<path d="M188.69 251.111C188.65 251.104 188.076 252.324 187.614 256.743C187.458 258.234 187.339 260.034 187.382 261.832C187.421 263.496 187.6 265.246 188.064 266.748C188.175 267.11 188.333 267.442 188.541 267.742C188.749 268.039 188.997 268.293 189.277 268.505C189.556 268.716 189.859 268.881 190.173 269.01C190.487 269.138 190.813 269.231 191.141 269.299C191.794 269.434 192.485 269.476 193.151 269.48C193.819 269.483 194.507 269.449 195.128 269.423C195.776 269.395 196.351 269.374 196.858 269.396C197.38 269.418 197.754 269.484 197.965 269.582C198.067 269.629 198.109 269.676 198.097 269.701C198.083 269.727 198.019 269.718 197.946 269.678C197.875 269.638 197.811 269.573 197.776 269.553C197.736 269.533 197.724 269.563 197.694 269.671C197.623 271.804 198.007 273.823 198.669 275.682C199.304 277.466 200.197 279.113 201.204 280.6C201.339 280.802 201.48 280.999 201.62 281.195C204.296 284.929 207.931 288.073 211.35 290.491C215.31 293.29 219.603 295.561 223.585 297.203C225.66 298.059 227.758 298.789 229.809 299.351C231.782 299.892 233.804 300.304 235.766 300.497C238.321 300.706 241.2 300.475 244.363 299.862C247.284 299.297 250.54 298.389 254.142 297.123C260.37 294.936 267.796 291.619 276.415 287.03L276.582 286.939C284.099 282.929 292.273 278.084 300.704 272.621C308.382 267.647 316.2 262.204 323.55 256.676C324.881 255.675 325.957 254.458 326.789 253.092C327.601 251.761 328.151 250.338 328.509 248.903C328.861 247.494 329.034 246.048 329.084 244.611C329.132 243.193 329.062 241.747 328.906 240.3C328.601 237.476 327.958 234.529 327.142 231.614C326.343 228.762 325.363 225.888 324.331 223.126C323.321 220.424 322.264 217.836 321.285 215.494C320.328 213.207 319.449 211.162 318.808 209.593C318.484 208.799 318.244 208.185 318.065 207.692C317.973 207.437 317.926 207.296 317.881 207.164C317.84 207.049 317.835 207.026 317.839 207.133C317.842 207.179 317.849 207.302 317.848 207.456C317.846 207.606 317.836 207.873 317.774 208.207C317.713 208.533 317.58 209.052 317.26 209.629C316.924 210.236 316.381 210.901 315.565 211.405C314.75 211.909 313.912 212.096 313.217 212.121C312.559 212.145 312.042 212.025 311.728 211.928C311.406 211.828 311.177 211.714 311.051 211.644C310.918 211.57 310.841 211.513 310.81 211.487C311.028 211.622 311.269 211.761 311.526 211.893C311.776 212.021 312.093 212.169 312.458 212.297C312.802 212.419 313.335 212.576 313.986 212.625C314.323 212.651 314.733 212.651 315.191 212.582C315.653 212.513 316.172 212.371 316.702 212.111C317.237 211.848 317.73 211.491 318.149 211.046C318.565 210.607 318.862 210.135 319.069 209.686C319.467 208.824 319.536 208.039 319.538 207.557C319.541 207.054 319.471 206.631 319.405 206.333C319.338 206.024 319.252 205.749 319.171 205.52C319.014 205.074 318.816 204.645 318.63 204.271C318.439 203.889 318.222 203.488 317.995 203.088C317.548 202.301 316.997 201.397 316.402 200.446C315.233 198.58 313.742 196.291 312.217 193.92C310.706 191.574 309.12 189.08 307.686 186.698C307.617 186.678 307.471 186.447 307.332 186.036C307.194 185.624 307.077 185.089 306.983 184.445C306.792 183.136 306.731 181.676 306.644 180.122C306.603 179.383 306.555 178.619 306.477 177.907C306.401 177.22 306.285 176.448 306.07 175.731C305.96 175.368 305.803 174.941 305.565 174.515C305.328 174.093 304.961 173.577 304.391 173.153C304.101 172.939 303.772 172.756 303.404 172.625C303.037 172.495 302.664 172.427 302.298 172.414C301.578 172.388 300.973 172.567 300.492 172.784C300.426 172.824 300.478 172.798 300.664 172.789C300.758 172.784 300.897 172.785 301.066 172.811C301.238 172.838 301.436 172.892 301.643 172.988C301.852 173.086 302.041 173.214 302.204 173.365C302.365 173.513 302.481 173.667 302.561 173.801C302.719 174.069 302.738 174.229 302.736 174.266C302.732 174.317 302.707 174.212 302.696 174.082C302.684 173.933 302.682 173.723 302.695 173.452C302.721 172.904 302.803 172.194 302.933 171.315C303.191 169.582 303.619 167.311 304.04 164.682C304.459 162.06 304.871 159.068 305.096 155.838C305.547 149.383 305.257 141.939 302.771 134.465C301.527 130.726 299.738 126.993 297.229 123.388C294.72 119.781 291.505 116.323 287.431 113.122C287.483 113.17 287.556 113.248 287.631 113.357C287.709 113.467 287.782 113.606 287.832 113.77C287.884 113.935 287.906 114.099 287.902 114.255C287.899 114.408 287.872 114.535 287.842 114.63C287.78 114.819 287.715 114.878 287.706 114.872C287.698 114.865 287.735 114.798 287.811 114.708C287.975 114.514 288.258 114.261 288.633 113.967C289.005 113.676 289.431 113.373 289.878 113.06C290.298 112.765 290.784 112.43 291.203 112.121C291.412 111.966 291.622 111.805 291.82 111.642C292.013 111.483 292.211 111.307 292.393 111.12C292.565 110.944 292.771 110.707 292.939 110.419C293.024 110.272 293.114 110.086 293.179 109.867C293.244 109.647 293.289 109.377 293.266 109.075C293.242 108.767 293.151 108.466 292.994 108.193C292.843 107.929 292.648 107.723 292.459 107.572C292.273 107.424 292.082 107.318 291.912 107.242C291.742 107.165 291.571 107.109 291.411 107.066C290.235 106.747 289.157 106.559 288.16 106.492C287.184 106.425 286.294 106.475 285.472 106.623C284.666 106.769 283.952 107.005 283.308 107.298C282.677 107.584 282.133 107.916 281.653 108.244C281.196 108.557 280.765 108.89 280.424 109.143C280.065 109.409 279.789 109.6 279.535 109.736C279.296 109.864 279.12 109.921 278.956 109.943C278.809 109.962 278.616 109.959 278.339 109.882C278.474 109.912 278.565 109.964 278.609 109.992C278.648 110.019 278.648 110.018 278.614 109.971C278.539 109.857 278.424 109.652 278.273 109.269C278.131 108.907 277.991 108.468 277.845 107.954C277.699 107.444 277.561 106.906 277.412 106.328C277.268 105.769 277.113 105.172 276.948 104.606C276.784 104.046 276.596 103.466 276.373 102.934C276.262 102.667 276.134 102.396 275.988 102.135C275.844 101.876 275.668 101.608 275.456 101.354C275.244 101.101 274.974 100.839 274.632 100.621C274.285 100.399 273.87 100.229 273.397 100.165C272.886 100.096 272.38 100.147 271.904 100.307C271.439 100.463 271.049 100.708 270.731 100.973C270.416 101.236 270.157 101.533 269.943 101.823C269.728 102.114 269.542 102.422 269.381 102.727C269.062 103.329 268.8 103.99 268.581 104.624C268.361 105.261 268.169 105.916 267.999 106.52C267.828 107.126 267.675 107.695 267.538 108.161C267.469 108.395 267.405 108.598 267.347 108.767C267.288 108.936 267.238 109.057 267.205 109.119C267.134 109.25 267.201 109.091 267.255 109.008C267.3 108.939 267.402 108.799 267.579 108.65C267.671 108.573 267.792 108.486 267.944 108.406C268.098 108.326 268.284 108.252 268.499 108.207C268.715 108.161 268.943 108.147 269.172 108.17C269.4 108.192 269.605 108.248 269.784 108.321C270.131 108.462 270.358 108.657 270.477 108.775C270.597 108.895 270.67 108.998 270.695 109.033C270.725 109.076 270.732 109.087 270.727 109.064C270.021 107.436 269.003 105.829 267.889 104.358C266.768 102.877 265.51 101.484 264.286 100.286C263.671 99.6837 263.057 99.1246 262.466 98.6233C261.876 98.1222 261.295 97.6688 260.748 97.2843C260.209 96.906 259.65 96.5577 259.109 96.2998C258.836 96.1699 258.523 96.041 258.185 95.9478C258.013 95.9002 257.817 95.8571 257.602 95.8305C257.389 95.8041 257.133 95.7908 256.849 95.817C256.39 95.8581 255.894 95.9806 255.411 96.2366C254.92 96.4972 254.517 96.8564 254.208 97.2714C253.907 97.6762 253.723 98.0955 253.609 98.464C253.494 98.8311 253.439 99.1815 253.411 99.4823C253.356 100.07 253.394 100.647 253.44 101.104C253.488 101.573 253.561 102.059 253.62 102.452C253.682 102.877 253.732 103.225 253.758 103.527C253.783 103.82 253.774 104.031 253.76 104.056C253.757 104.065 253.746 104.037 253.767 103.931C253.788 103.83 253.839 103.659 253.963 103.451C254.094 103.233 254.286 103.011 254.544 102.827C254.8 102.645 255.053 102.55 255.25 102.503C248.887 103.816 242.898 106.031 237.518 108.64C231.991 111.321 227.038 114.449 222.866 117.55C218.56 120.752 215.014 123.978 212.402 126.808C211.057 128.266 209.929 129.651 209.052 130.918C208.605 131.562 208.211 132.193 207.883 132.803C207.554 133.413 207.268 134.043 207.066 134.676C206.578 136.202 206.252 137.929 206.135 139.732C206.015 141.586 206.115 143.55 206.504 145.51C206.906 147.529 207.615 149.547 208.71 151.437C209.844 153.392 211.366 155.169 213.315 156.656C215.331 158.192 217.738 159.368 220.527 160.141C223.419 160.942 226.694 161.303 230.349 161.213C238.188 161.021 247.785 158.756 259.174 154.319C259.786 153.861 260.251 153.185 260.483 152.415C260.715 151.646 260.698 150.835 260.434 150.133C260.171 149.431 259.68 148.885 259.052 148.596C258.424 148.307 257.7 148.295 257.016 148.561C256.894 148.653 254.907 149.479 252.545 150.914C249.604 152.701 246.478 155.115 243.762 158.22C242.134 160.081 240.779 162.048 239.695 164.092C238.33 166.665 237.484 169.194 236.999 171.554C236.75 172.769 236.601 173.915 236.523 174.969C235.956 182.623 239.055 188.703 239.818 190.562C239.433 188.494 238.86 181.965 240.266 175.494C240.463 174.586 240.713 173.616 241.041 172.601C241.678 170.63 242.581 168.572 243.887 166.504C244.924 164.862 246.168 163.286 247.635 161.796C250.085 159.307 252.857 157.364 255.453 155.961C257.527 154.84 259.24 154.249 259.118 154.34L256.96 148.582C245.895 152.809 237.045 154.754 230.214 154.875C227.057 154.931 224.425 154.595 222.253 153.978C220.171 153.386 218.526 152.54 217.232 151.541C215.983 150.578 215.027 149.447 214.311 148.202C213.614 146.988 213.137 145.651 212.86 144.25C212.591 142.885 212.517 141.487 212.602 140.147C212.685 138.838 212.917 137.632 213.231 136.636C213.279 136.481 213.382 136.222 213.578 135.854C213.768 135.495 214.026 135.069 214.363 134.578C215.026 133.608 215.948 132.45 217.133 131.151C219.434 128.628 222.661 125.645 226.666 122.631C230.539 119.717 235.139 116.774 240.259 114.25C245.246 111.793 250.735 109.729 256.507 108.496C257.005 108.387 257.512 108.184 257.983 107.855C258.454 107.526 258.819 107.119 259.088 106.682C259.349 106.257 259.503 105.831 259.595 105.455C259.687 105.082 259.725 104.729 259.738 104.42C259.763 103.821 259.698 103.241 259.626 102.772C259.553 102.297 259.453 101.818 259.369 101.422C259.278 100.991 259.211 100.676 259.157 100.369C259.108 100.089 259.094 99.8893 259.081 99.8839C259.074 99.8811 259.065 99.9305 259.026 100.044C258.986 100.159 258.908 100.345 258.748 100.555C258.579 100.775 258.353 100.975 258.079 101.117C257.813 101.254 257.577 101.298 257.424 101.307C257.243 101.323 257.101 101.311 257.012 101.298C256.92 101.284 256.86 101.266 256.831 101.256C256.769 101.233 256.802 101.231 256.881 101.258C257.054 101.319 257.36 101.473 257.766 101.727C258.165 101.978 258.629 102.305 259.135 102.7C259.64 103.093 260.177 103.547 260.727 104.047C261.826 105.048 262.952 106.215 263.948 107.441C264.948 108.672 265.776 109.911 266.327 111.058C266.401 111.211 266.488 111.379 266.596 111.545C266.7 111.707 266.845 111.908 267.04 112.105C267.234 112.3 267.533 112.547 267.951 112.718C268.165 112.805 268.406 112.87 268.668 112.897C268.932 112.923 269.194 112.907 269.445 112.855C269.694 112.802 269.914 112.717 270.102 112.619C270.288 112.522 270.442 112.412 270.567 112.308C270.81 112.105 270.979 111.891 271.089 111.73C271.303 111.417 271.439 111.095 271.524 110.866C271.618 110.618 271.697 110.356 271.764 110.11C271.833 109.859 271.899 109.592 271.962 109.326C272.09 108.788 272.215 108.215 272.348 107.642C272.483 107.063 272.623 106.501 272.778 105.98C272.934 105.452 273.09 105.018 273.245 104.68C273.322 104.513 273.388 104.393 273.442 104.306C273.494 104.221 273.523 104.187 273.509 104.192C273.494 104.197 273.422 104.245 273.3 104.282C273.166 104.321 273.021 104.331 272.892 104.308C272.703 104.279 272.556 104.208 272.462 104.143C272.365 104.075 272.354 104.042 272.36 104.044C272.374 104.051 272.421 104.098 272.479 104.19C272.539 104.282 272.609 104.406 272.686 104.565C272.842 104.888 273 105.299 273.163 105.788C273.328 106.277 273.487 106.81 273.654 107.37C273.819 107.927 273.991 108.514 274.172 109.074C274.354 109.639 274.555 110.209 274.784 110.732C275.009 111.249 275.295 111.795 275.667 112.262C275.858 112.503 276.095 112.748 276.383 112.959C276.677 113.175 277.031 113.359 277.445 113.458C278.189 113.636 278.894 113.657 279.567 113.535C280.234 113.415 280.812 113.163 281.299 112.884C281.779 112.608 282.216 112.28 282.582 111.998C282.984 111.688 283.304 111.432 283.674 111.172C284.034 110.92 284.392 110.702 284.779 110.524C285.17 110.343 285.602 110.199 286.099 110.109C286.608 110.017 287.203 109.98 287.911 110.031C288.637 110.084 289.48 110.23 290.464 110.504C290.481 110.51 290.471 110.51 290.43 110.492C290.392 110.475 290.31 110.436 290.211 110.358C290.108 110.277 289.979 110.146 289.873 109.962C289.761 109.769 289.696 109.552 289.678 109.333C289.661 109.12 289.693 108.943 289.729 108.82C289.764 108.698 289.807 108.613 289.831 108.571C289.875 108.49 289.887 108.486 289.825 108.541C289.765 108.595 289.677 108.667 289.542 108.768C289.408 108.867 289.25 108.977 289.068 109.098C288.692 109.349 288.258 109.618 287.794 109.906C287.335 110.192 286.829 110.508 286.361 110.823C285.902 111.133 285.41 111.49 284.998 111.871C284.789 112.063 284.568 112.291 284.373 112.552C284.182 112.808 283.971 113.155 283.846 113.588C283.782 113.81 283.739 114.062 283.738 114.336C283.737 114.613 283.78 114.897 283.872 115.176C283.965 115.455 284.099 115.705 284.258 115.925C284.416 116.142 284.592 116.323 284.771 116.473C288.49 119.458 291.363 122.638 293.568 125.901C295.772 129.162 297.321 132.524 298.379 135.888C300.498 142.625 300.66 149.417 300.107 155.438C299.83 158.454 299.375 161.27 298.901 163.79C298.426 166.314 297.931 168.531 297.574 170.404C297.399 171.326 297.248 172.21 297.164 172.993C297.122 173.388 297.093 173.789 297.09 174.178C297.087 174.562 297.109 174.987 297.189 175.418C297.267 175.842 297.42 176.371 297.743 176.892C297.909 177.16 298.122 177.427 298.39 177.672C298.662 177.919 298.972 178.125 299.314 178.281C299.654 178.436 299.998 178.53 300.33 178.577C300.658 178.624 300.969 178.625 301.25 178.602C301.8 178.556 302.299 178.41 302.716 178.251C302.62 178.31 302.342 178.433 301.909 178.425C301.69 178.422 301.453 178.384 301.213 178.303C300.973 178.221 300.761 178.107 300.582 177.978C300.235 177.731 300.045 177.457 299.969 177.346C299.882 177.221 299.866 177.187 299.854 177.244C299.835 177.346 299.85 177.731 299.832 178.24C299.813 178.779 299.778 179.367 299.731 180.106C299.642 181.5 299.517 183.307 299.559 185.004C299.58 185.877 299.646 186.804 299.803 187.714C299.96 188.619 300.227 189.625 300.714 190.589C302.057 193.179 303.546 195.862 304.908 198.303C306.318 200.832 307.587 203.094 308.552 204.951C309.038 205.888 309.429 206.685 309.699 207.311C309.835 207.624 309.935 207.882 309.995 208.072C310.051 208.249 310.075 208.383 310.035 208.333C310.019 208.312 309.987 208.24 309.948 208.098C309.916 207.97 309.86 207.703 309.86 207.327C309.859 206.973 309.906 206.297 310.264 205.519C310.451 205.112 310.724 204.677 311.11 204.269C311.501 203.855 311.958 203.522 312.454 203.278C312.944 203.037 313.419 202.908 313.832 202.846C314.241 202.784 314.597 202.785 314.874 202.805C315.403 202.844 315.801 202.965 315.982 203.025C316.2 203.098 316.307 203.147 316.364 203.167C316.421 203.187 316.425 203.182 316.398 203.151C316.193 203.007 315.949 202.851 315.67 202.702C315.397 202.556 315.033 202.386 314.592 202.25C314.158 202.117 313.533 201.982 312.782 202.01C311.993 202.039 311.075 202.25 310.192 202.796C309.308 203.344 308.708 204.07 308.329 204.756C307.965 205.413 307.801 206.03 307.72 206.472C307.638 206.924 307.619 207.323 307.62 207.625C307.621 207.935 307.642 208.217 307.668 208.453C307.72 208.919 307.808 209.358 307.894 209.729C307.984 210.113 308.091 210.502 308.205 210.881C308.433 211.643 308.723 212.482 309.041 213.354C309.679 215.102 310.537 217.266 311.402 219.488C312.309 221.815 313.255 224.281 314.149 226.823C315.063 229.423 315.891 232.011 316.542 234.495C317.213 237.054 317.665 239.385 317.852 241.42C317.947 242.452 317.97 243.366 317.93 244.166C317.889 244.979 317.785 245.63 317.649 246.141C317.511 246.655 317.349 246.993 317.21 247.211C317.075 247.42 316.939 247.555 316.793 247.661C309.633 253.01 302.025 258.311 294.565 263.19C286.371 268.549 278.498 273.309 271.331 277.28C271.331 277.28 271.171 277.367 271.171 277.367C262.949 281.916 256.071 285.204 250.514 287.426C247.3 288.712 244.541 289.635 242.196 290.258C239.63 290.94 237.639 291.24 236.116 291.295C234.765 291.364 233.207 291.284 231.535 291.067C229.808 290.843 227.96 290.472 226.067 289.966C222.416 288.991 218.394 287.457 214.615 285.344C211.331 283.508 207.99 281.095 205.532 278.176C205.406 278.024 205.28 277.872 205.157 277.718C204.246 276.573 203.459 275.337 202.882 274.026C202.282 272.669 201.9 271.218 201.846 269.685C201.819 269.236 201.735 268.775 201.562 268.333C201.391 267.894 201.141 267.493 200.804 267.155C200.477 266.826 200.108 266.594 199.731 266.436C199.367 266.282 198.999 266.199 198.654 266.156C197.997 266.074 197.31 266.124 196.685 266.206C196.066 266.287 195.408 266.414 194.791 266.532C194.166 266.652 193.569 266.766 192.994 266.846C192.422 266.925 191.915 266.964 191.475 266.946C191.258 266.937 191.065 266.914 190.895 266.879C190.726 266.843 190.58 266.796 190.455 266.737C190.33 266.678 190.216 266.605 190.115 266.507C190.013 266.407 189.912 266.278 189.825 266.1C189.29 264.883 188.966 263.338 188.781 261.733C188.583 260.026 188.543 258.269 188.556 256.793C188.592 252.748 188.805 251.13 188.69 251.111Z" fill="black"/>
<path d="M55.8972 132.361L91.5582 146.825" stroke="black" stroke-width="3.77953" stroke-linecap="round" stroke-linejoin="round"/>
<path d="M20.8827 169.086L88.735 175.058" stroke="black" stroke-width="3.77953" stroke-linecap="round" stroke-linejoin="round"/>
<path d="M45.5198 213.617L80.9473 201.604" stroke="black" stroke-width="3.77953" stroke-linecap="round" stroke-linejoin="round"/>
<path d="M275.502 274.827C268.278 278.822 266.072 280.013 263.211 281.465C252.083 287.112 243.353 290.36 237.478 291.039C232.399 291.626 225.128 290.102 218.279 287.014C211.828 284.106 206.678 280.102 204.117 276.002C202.853 273.98 202.349 272.603 202.003 270.229C201.432 266.306 200.065 265.582 194.812 266.418C193.058 266.697 191.288 266.838 190.881 266.73C190.183 266.546 190.115 266.466 189.71 265.364C189.474 264.719 189.153 263.343 188.996 262.304C188.713 260.414 188.593 254.056 188.814 252.613L188.931 251.848L191.1 251.32C192.687 250.933 193.106 250.771 192.662 250.714C192.328 250.672 190.543 250.489 188.696 250.308C174.65 248.932 164.894 246.424 156.998 242.159C150.489 238.644 144.952 233.97 139.881 227.712C137.566 224.855 136.9 224.446 133.338 223.692C130.073 223.001 130.274 223.18 128.972 219.802C126.227 212.681 125.695 203.052 127.598 194.932C128.549 190.87 130.095 188.073 133.244 184.719C135.313 182.514 138.842 180.26 141.52 179.433C143.766 178.739 147.715 178.348 150.259 178.568C156.549 179.112 165.38 182.242 171.733 186.178C178.759 190.531 183.06 195.743 185.158 202.448C186.688 207.34 185.952 210.788 182.602 214.416C181.41 215.707 176.702 218.762 171.822 221.412L168.923 222.986L168.73 223.823C168.517 224.745 168.948 225.389 169.977 225.684C172.556 226.423 180.524 223.256 184.794 219.795C191.287 214.532 193.152 207.623 190.182 199.839C189.912 199.132 189.663 198.44 189.627 198.3C189.586 198.138 190.092 197.985 191.007 197.881C194.38 197.5 199.198 195.417 202.193 193.046C206.554 189.594 209.066 185.846 210.397 180.805C213.39 169.47 208.037 156.645 196.091 146.524C182.619 135.111 167.281 131.525 153.698 136.613C152.497 137.063 151.216 137.618 150.85 137.846L150.186 138.262L149.869 137.333C149.385 135.915 146.154 131.272 144.179 129.155C143.233 128.142 140.419 125.366 137.926 122.987C129.083 114.55 126.275 111.298 122.161 104.733C119.522 100.522 119.071 99.6914 118.277 97.5709C116.221 92.0832 115.581 87.0801 116.289 82.0247C116.905 77.6234 118.053 73.4113 119.317 70.9184C119.878 69.8119 122.854 66.2514 123.616 65.7754C124.223 65.3957 127.168 64.536 129.228 64.1367C134.029 63.2059 139.419 64.3592 145.38 67.5933C157.934 74.4041 175.151 92.3749 190.342 114.523L192.328 117.419L194.524 116.217C195.731 115.556 197.332 114.633 198.08 114.166L199.441 113.316L198.885 112.14C197.554 109.325 194.688 102.44 193.018 98.0431C185.34 77.8342 182.828 61.7572 185.627 50.739C186.675 46.6148 188.096 43.8171 190.569 41.0131C193.312 37.9017 198.144 35.4339 202.378 34.9815C208.863 34.2887 214.319 37.9537 218.93 46.101C222.049 51.6107 224.648 58.6541 232.572 83.0687C237.781 99.1184 239.079 102.815 240.303 105.09L241.256 106.859L240.626 107.096C236.36 108.707 226.41 114.619 221.53 118.442C213.335 124.862 208.064 130.862 206.79 135.221C205.814 138.562 205.774 143.123 206.69 146.62C207.985 151.557 210.494 154.994 214.775 157.692C220.618 161.373 229.018 162.266 239.42 160.311L242.326 159.765L241.273 161.298C235.933 169.067 234.95 178.164 238.442 187.489C239.73 190.927 239.905 191.006 239.664 188.038C239.547 186.596 239.501 184.149 239.562 182.6C239.93 173.285 242.632 166.794 248.52 161.087C250.545 159.124 255.998 155.568 258.122 154.825C259.717 154.268 260.337 153.565 260.616 151.997C260.951 150.116 260.165 148.719 258.588 148.391C257.9 148.247 257.073 148.459 253.743 149.634C240.581 154.274 230.522 155.739 223.369 154.057C219.445 153.134 216.955 151.659 215.073 149.143C212.437 145.618 211.928 138.999 214.019 135.442C216.355 131.468 221.933 126.137 229.107 121.02C236.914 115.452 246.16 111.146 254.931 108.993C256.288 108.66 257.641 108.237 257.936 108.052C258.767 107.532 259.764 105.703 259.803 104.625C259.822 104.094 259.956 103.686 260.099 103.72C260.764 103.873 263.517 107.025 265.43 109.824L267.442 112.768L268.408 112.935C269.127 113.058 269.566 112.981 270.122 112.634C271.294 111.902 271.572 111.367 272.313 108.419C272.695 106.902 273.063 105.865 273.13 106.114C273.53 107.589 274.846 111.262 275.149 111.748C276.065 113.214 277.339 113.835 279.152 113.698C280.041 113.631 280.504 113.411 282.936 111.904C285.186 110.509 285.853 110.181 286.483 110.155L287.259 110.124L286.22 110.795C284.687 111.786 283.696 113.113 283.661 114.222C283.624 115.423 283.937 115.882 286.027 117.692C295.244 125.673 299.908 135.774 300.214 148.414C300.345 153.824 299.75 159.032 298.039 167.476C297.104 172.087 296.859 174.53 297.197 175.873C297.444 176.852 298.248 177.848 299.123 178.26C299.656 178.511 299.689 178.604 299.624 179.67C299.334 184.459 299.456 187.035 300.073 189.122C300.271 189.791 301.331 191.985 302.43 193.996C303.529 196.007 305.265 199.18 306.288 201.047L308.147 204.441L307.765 206.098C307.182 208.623 307.425 209.505 311.998 221.426C315.337 230.128 317.068 236.035 317.614 240.586C317.924 243.17 317.755 246.014 317.239 246.877C316.888 247.465 313.103 250.305 305.094 255.992C302.034 258.165 278.197 273.337 275.502 274.827Z" fill="#E6E6E6"/>
<path d="M195.269 191.194C194.273 191.7 192.502 192.467 191.334 192.899C190.166 193.331 188.876 193.893 188.469 194.147L187.727 194.611L186.782 193.099C182.639 186.469 174.52 180.656 164.423 177.091C161.151 175.935 153.821 174.312 151.182 174.159C146.419 173.881 141.738 174.666 138.017 176.366C136.232 177.181 135.465 177.421 136.292 176.904C136.906 176.52 136.984 175.048 136.487 173.258C135.417 169.408 135.299 166.717 136.042 163.058C137.288 156.925 142.111 149.83 148.347 144.957C153.937 140.589 161.271 138.353 168.767 138.732C171.6 138.875 177.83 140.312 180.526 141.444C189.008 145.007 197.434 152.01 201.96 159.258C207.189 167.633 207.857 177.076 203.696 183.81C201.858 186.783 198.966 189.318 195.269 191.194Z" fill="#E6E6E6"/>
</svg>
