<svg width="423" height="340" viewBox="0 0 423 340" fill="none" xmlns="http://www.w3.org/2000/svg">
<path d="M273.023 251.249C273.023 251.249 278.521 247.462 277.272 239.73L258.149 240.999L264.774 247.999L273.023 251.249Z" fill="black" stroke="black" stroke-width="3.77953" stroke-linecap="round" stroke-linejoin="round"/>
<path d="M273.314 241.96C273.314 241.96 287.27 235.918 289.176 222.764C291.082 209.611 283.524 184.748 283.524 184.748L247.935 189.081L219.662 216.994C219.662 216.994 218.048 231.145 228.123 234.36C238.198 237.575 261.524 245.998 261.524 245.998L273.314 241.96Z" fill="#E5E5E5" stroke="black" stroke-width="3.77953" stroke-linecap="round" stroke-linejoin="round"/>
<path d="M232.774 251.748C232.774 251.748 252.471 256.149 258.774 255.623C264.774 255.123 271.774 253.748 273.023 251.248C274.274 248.748 254.754 246.6 254.764 215.924C254.764 185.248 247.935 189.081 247.935 189.081L226.274 201.248C226.274 201.248 207.436 219.628 212.443 230.495C217.45 241.362 232.774 251.748 232.774 251.748Z" fill="black" stroke="black" stroke-width="3.77953" stroke-linecap="round" stroke-linejoin="round"/>
<path d="M304.647 128.561C304.61 119.02 304.609 115.441 295.861 106.191C287.11 96.9414 278.581 97.3525 271.537 99.4719C268.699 100.326 269.255 106.42 269.255 106.42L296.11 128.441C296.11 128.441 304.654 131.748 304.647 128.561Z" fill="#E5E5E5"/>
<path d="M305.592 128.559C305.592 126.904 305.589 124.307 305.429 122.27C305.297 120.589 305.04 118.813 304.414 116.966C303.863 115.34 303.031 113.649 301.695 111.712C300.466 109.929 298.821 107.95 296.545 105.544C294.342 103.214 292.101 101.428 289.828 100.123C287.613 98.8511 285.41 98.0592 283.235 97.6417C281.077 97.2272 278.984 97.1888 276.983 97.3882C274.961 97.5898 273.04 98.0339 271.263 98.5686C270.745 98.7245 270.315 98.9996 269.965 99.3384C269.61 99.6811 269.343 100.085 269.137 100.496C268.925 100.919 268.771 101.368 268.653 101.804C268.532 102.259 268.449 102.717 268.393 103.144C268.279 103.993 268.256 104.819 268.264 105.469C268.264 106.07 268.309 106.488 268.309 106.507C268.312 106.534 268.409 106.636 268.583 106.794C268.757 106.953 268.994 107.156 269.25 107.366C278.074 114.602 287.496 122.328 296.106 129.388L295.765 129.324C295.765 129.329 296.354 129.55 297.149 129.808C298.034 130.096 299.119 130.409 300.192 130.624C300.776 130.741 301.343 130.827 301.873 130.867C302.452 130.911 302.992 130.902 303.473 130.819C303.737 130.774 303.99 130.704 304.225 130.605C304.482 130.497 304.716 130.354 304.918 130.167C305.145 129.958 305.312 129.713 305.422 129.446C305.547 129.144 305.592 128.837 305.592 128.559ZM303.702 128.564C303.702 128.652 303.702 128.702 303.664 128.726C303.664 128.743 303.664 128.758 303.626 128.777C303.589 128.797 303.562 128.829 303.479 128.864C303.4 128.897 303.29 128.931 303.139 128.957C302.859 129.005 302.485 129.019 302.004 128.983C301.57 128.949 301.08 128.877 300.551 128.771C299.574 128.575 298.564 128.285 297.721 128.011C296.969 127.767 296.423 127.557 296.435 127.561L296.095 127.498C287.788 120.687 278.726 113.255 270.173 106.242C270.173 106.101 270.136 105.811 270.136 105.443C270.136 104.854 270.136 104.124 270.245 103.391C270.294 103.024 270.362 102.648 270.457 102.289C270.548 101.943 270.665 101.622 270.805 101.343C270.941 101.072 271.092 100.856 271.259 100.696C271.417 100.543 271.587 100.437 271.786 100.378C273.482 99.8677 275.28 99.4548 277.149 99.2684C278.995 99.0845 280.903 99.1219 282.858 99.4973C284.824 99.875 286.83 100.593 288.865 101.762C290.957 102.963 293.055 104.627 295.151 106.842C297.388 109.207 298.962 111.109 300.118 112.785C301.365 114.594 302.114 116.129 302.602 117.571C303.16 119.217 303.4 120.824 303.524 122.416C303.675 124.366 303.671 126.876 303.679 128.566L303.702 128.564Z" fill="black"/>
<path d="M17.1555 100.565C17.1555 100.565 9.63626 59.1635 51.8894 30.5664" stroke="black" stroke-width="5.66929" stroke-linecap="round" stroke-linejoin="round"/>
<path d="M3.85589 77.0813C3.85589 77.0813 -0.710453 51.9388 24.9492 34.5723" stroke="black" stroke-width="5.66929" stroke-linecap="round" stroke-linejoin="round"/>
<path d="M354.024 218.998L420.024 234.998" stroke="black" stroke-width="5.66929" stroke-linecap="round" stroke-linejoin="round"/>
<path d="M336.023 251.998L403.024 327.998" stroke="black" stroke-width="5.66929" stroke-linecap="round" stroke-linejoin="round"/>
<path d="M303.024 274.998L317.024 336.998" stroke="black" stroke-width="5.66929" stroke-linecap="round" stroke-linejoin="round"/>
<path d="M56.5924 129.508C56.5924 129.508 14.4212 151.787 3.52304 299.223C1.59998 325.239 179.484 360.942 243.427 311.954C253.107 304.537 246.071 223.942 231.167 192.945C216.263 161.947 129.373 78.5251 56.5924 129.508Z" fill="black" stroke="black" stroke-width="4.12694" stroke-linecap="round" stroke-linejoin="round"/>
<path d="M210.109 22.8246C210.109 22.8246 229.149 -1.00072 244.899 7.74928C260.649 16.4993 248.274 53.7493 238.149 58.9993C228.024 64.2493 202.524 37.3743 202.524 37.3743C202.524 37.3743 196.569 35.3998 210.109 22.8246Z" fill="#E5E5E5"/>
<path d="M211.063 23.5867C211.037 23.5838 211.305 22.7981 214.091 19.975C214.282 19.7816 214.483 19.5808 214.696 19.3736C216.227 17.878 218.991 15.4119 222.42 13.1436C224.017 12.0873 225.816 11.036 227.733 10.1588C229.507 9.34726 231.384 8.68341 233.293 8.30497C235.096 7.94754 236.907 7.84882 238.679 8.10586C240.369 8.35112 242.045 8.92276 243.685 9.9338C245.186 10.8643 246.339 12.1302 247.206 13.6887C248.065 15.2322 248.662 17.0997 248.994 19.2541C249.323 21.3868 249.385 23.7541 249.206 26.2693C249.028 28.7757 248.611 31.3862 248.01 33.9909C247.373 36.7505 246.534 39.4703 245.569 42.0184C244.735 44.2198 243.766 46.3946 242.691 48.4008C241.637 50.3658 240.513 52.1083 239.385 53.4842C238.85 54.1374 238.333 54.6833 237.846 55.1199C237.369 55.5482 236.953 55.8408 236.61 56.0299C236.376 56.1611 236.077 56.2718 235.675 56.3324C235.275 56.3929 234.777 56.403 234.164 56.3306C232.946 56.1867 231.44 55.7365 229.662 54.9416C227.941 54.1719 226.08 53.1304 224.137 51.8852C222.229 50.6626 220.291 49.275 218.393 47.8191C214.623 44.9278 211.137 41.8648 208.553 39.5188C205.949 37.1551 204.349 35.6007 204.298 35.6904L203.294 35.0524C203.403 35.1408 203.436 35.216 203.441 35.2752C203.444 35.3337 203.422 35.3906 203.39 35.429C203.356 35.4713 203.306 35.5058 203.238 35.4653C203.168 35.4235 203.078 35.2875 203.055 34.9935C203.028 34.6765 203.085 34.2169 203.289 33.6082C203.513 32.9399 203.895 32.1534 204.453 31.2568C205.943 28.8598 208.366 26.1915 210.941 23.719L211.063 23.5867ZM209.278 21.9288C206.582 24.3523 203.866 27.026 201.972 29.5483C201.254 30.5035 200.665 31.4223 200.229 32.2994C199.833 33.0969 199.554 33.8759 199.424 34.6355C199.301 35.3531 199.311 36.0469 199.47 36.7062C199.622 37.336 199.893 37.8685 200.22 38.3084C200.53 38.7257 200.868 39.0322 201.149 39.2534C201.422 39.469 201.644 39.6059 201.754 39.695L200.75 39.057C200.7 39.1444 202.219 40.8874 204.78 43.463C207.309 46.0063 210.825 49.3278 214.686 52.4908C216.634 54.0865 218.67 55.6422 220.718 57.0419C222.794 58.4612 224.9 59.7325 226.96 60.7277C229.054 61.74 231.187 62.5091 233.258 62.823C234.327 62.9851 235.412 63.0308 236.485 62.9096C237.586 62.7853 238.668 62.486 239.688 61.9676C240.625 61.4923 241.494 60.8736 242.287 60.1884C243.103 59.4828 243.875 58.6757 244.599 57.812C246.111 56.0068 247.488 53.8599 248.689 51.6123C249.927 49.2983 251.004 46.8311 251.902 44.3722C252.943 41.5225 253.816 38.4782 254.444 35.3815C255.037 32.4599 255.413 29.4845 255.503 26.5816C255.593 23.6742 255.393 20.8231 254.831 18.1652C254.26 15.4781 253.309 12.9688 251.886 10.8068C250.425 8.58702 248.505 6.79391 246.113 5.56362C243.75 4.35208 241.375 3.78165 239.085 3.66269C236.709 3.53921 234.435 3.90189 232.344 4.52067C230.131 5.17548 228.062 6.13494 226.206 7.18806C224.195 8.32961 222.36 9.62343 220.775 10.8666C217.404 13.5089 214.669 16.3166 213.177 17.8659C212.965 18.086 212.762 18.2983 212.569 18.501C209.752 21.4621 209.182 22.0642 209.154 22.0613L209.278 21.9288Z" fill="black"/>
<path d="M83.0236 151.999C83.0236 151.999 50.5238 144.999 58.2738 103.249C66.0238 61.4987 80.8566 57.9591 85.0237 55.7487C82.3093 53.526 57.6489 41.0961 82.8984 8.12375C99.9875 -14.1923 139.211 20.4362 139.211 20.4362C160.437 8.56834 171.438 15.1219 181.263 11.9108C190.013 9.6608 183.524 12.2487 184.024 16.2487C184.524 20.2487 188.14 14.4835 195.856 14.3627C200.875 14.2842 203.801 16.6657 199.024 21.2487C193.779 26.2795 240.377 13.2486 258.774 73.2487C279.842 141.961 257.024 179.749 257.024 179.749C257.024 179.749 182.774 262.749 83.0236 151.999Z" fill="#E5E5E5"/>
<path d="M83.1073 151.611C83.1148 151.637 81.9456 151.69 78.1351 150.101C75.4198 148.968 71.4716 146.892 67.7165 143.307C63.8607 139.627 60.6337 134.761 58.7874 128.505C57.8617 125.368 57.3468 122.096 57.1823 118.76C56.9393 113.828 57.4657 108.65 58.6082 103.311C60.7782 93.1677 63.5265 85.2397 66.3921 79.0371C68.193 75.1393 70.1835 71.6197 72.3387 68.594C73.014 67.646 73.7191 66.7335 74.4575 65.8654C76.7507 63.1696 79.0111 61.3146 81.248 59.9688C82.1994 59.3964 83.0712 58.9596 83.8835 58.5784C84.2718 58.3961 84.641 58.2291 84.9933 58.0661C85.3316 57.9095 85.678 57.7454 85.9931 57.5768C86.2945 57.4156 86.5518 57.1826 86.7419 56.8987C86.932 56.6147 87.0491 56.2886 87.0829 55.9493C87.1167 55.61 87.066 55.2681 86.9355 54.9539C86.8049 54.6397 86.5985 54.3631 86.3345 54.1485C86.1989 54.0381 86.0508 53.9298 85.9089 53.8297C85.7649 53.728 85.6049 53.6194 85.439 53.5077C85.0989 53.2788 84.727 53.0332 84.2907 52.7346C83.433 52.1477 82.4016 51.4062 81.3151 50.4849C79.0554 48.5686 76.7376 46.0245 75.1925 42.7016C74.3772 40.9482 73.7975 39.022 73.5286 36.9034C73.2372 34.6073 73.3178 32.14 73.8114 29.4941C75.1254 22.4464 79.1364 15.3172 83.8575 8.85825C84.4034 8.09208 84.9353 7.44383 85.43 6.89481C87.2002 4.93043 88.9791 3.6468 90.4633 2.78936C92.5232 1.59935 94.4235 0.996159 95.6798 0.789094C96.4013 0.67019 96.8521 0.67056 97.5578 0.645162C97.8987 0.633067 98.3564 0.623628 98.9071 0.633454C101.565 0.680774 106.253 1.65005 107.501 2.00197C107.853 2.1013 107.945 2.11483 108.227 2.20906C108.261 2.22039 108.299 2.23325 108.341 2.24761C109.782 2.74575 112.843 4.23147 117.091 6.66939C117.996 7.18867 118.93 7.73548 119.913 8.32031C123.739 10.596 127.764 13.2418 132.029 16.4454C135.46 19.0224 138.32 21.4972 138.301 21.4673L139.882 21.6367C144.833 18.8588 149.383 16.9911 153.691 15.8186C157.643 14.7431 161.186 14.3055 164.558 14.1488C167.758 14.0002 170.718 14.1163 173.542 14.0723C174.934 14.0508 176.298 13.9876 177.637 13.8236C178.968 13.6606 180.276 13.398 181.573 12.9767C182.594 12.7143 183.442 12.5056 184.096 12.3631C184.407 12.2954 184.667 12.2444 184.881 12.2084C185.094 12.1728 185.235 12.1564 185.335 12.1484C185.379 12.1449 185.409 12.1435 185.415 12.1416C185.423 12.139 185.408 12.1359 185.364 12.1193C185.326 12.1042 185.249 12.0705 185.164 12.0028C185.074 11.9316 184.987 11.831 184.926 11.7005C184.867 11.574 184.851 11.4561 184.852 11.3681C184.853 11.2844 184.871 11.229 184.878 11.2056C184.897 11.1553 184.901 11.1954 184.871 11.2689C184.84 11.3437 184.787 11.4458 184.714 11.576C184.642 11.7046 184.558 11.846 184.459 12.0128C184.273 12.3288 184.043 12.7232 183.836 13.1621C183.634 13.5915 183.443 14.0842 183.329 14.6235C183.217 15.1538 183.178 15.7328 183.276 16.3429C183.321 16.6219 183.382 16.8776 183.465 17.1059C183.547 17.3321 183.654 17.544 183.798 17.7262C183.944 17.911 184.124 18.0601 184.338 18.1587C184.549 18.2559 184.767 18.2914 184.976 18.2888C185.181 18.2863 185.382 18.2474 185.574 18.1917C185.766 18.1361 185.963 18.0594 186.16 17.9716C186.55 17.7986 186.99 17.561 187.461 17.306C187.937 17.0477 188.46 16.7626 189.042 16.4753C189.622 16.1885 190.258 15.9011 190.953 15.6419C192.352 15.1192 193.982 14.7138 195.863 14.6538C197.112 14.6029 198.207 14.7118 199.079 14.9616C199.525 15.0895 199.91 15.2534 200.227 15.4496C200.551 15.6501 200.804 15.8833 200.983 16.145C201.166 16.4137 201.273 16.7147 201.299 17.0464C201.325 17.3905 201.265 17.7684 201.111 18.1771C200.951 18.6035 200.691 19.0579 200.332 19.5358C199.953 20.039 199.468 20.5625 198.883 21.1015C198.795 21.1834 198.718 21.2624 198.653 21.3391C198.588 21.4162 198.533 21.493 198.49 21.5699C198.447 21.6475 198.415 21.7281 198.399 21.8118C198.384 21.8973 198.384 21.9838 198.407 22.0689C198.429 22.1545 198.47 22.2307 198.524 22.2976C198.578 22.3645 198.643 22.4221 198.715 22.4722C198.86 22.5729 199.045 22.6543 199.255 22.7239C199.471 22.7956 199.725 22.8587 200.007 22.9166C200.297 22.976 200.622 23.0311 200.975 23.0845C201.693 23.1932 202.587 23.3037 203.522 23.4243C205.685 23.7031 208.023 24.0322 210.677 24.6023C213.789 25.2707 216.817 26.1652 219.774 27.3477C220.804 27.7597 221.798 28.1961 222.759 28.6544C230.908 32.5435 235.933 37.7894 239.343 42.0247C241.734 44.9949 247.117 52.1407 251.778 63.4562C253.003 66.4314 254.309 69.9996 255.569 74.2325C263.777 101.711 266.297 128.085 262.392 151.686C259.724 167.804 254.082 178.356 254.409 178.17L257.025 182.805C257.025 182.72 252.49 187.739 243.865 193.765L242.257 188.723C234.054 194.67 222.016 201.522 206.896 204.998C199.339 206.735 191.029 207.625 182.051 207.151C173.01 206.673 163.311 204.813 153.037 201.059C142.633 197.258 131.687 191.532 120.285 183.399C108.671 175.116 96.6653 164.394 84.3484 150.807L83.0249 153.78C83.025 153.157 83.0251 152.566 83.0252 152.396L83.1073 151.611ZM83.0238 151.602C83.0237 151.432 83.0236 150.841 83.0235 150.218L81.7003 153.191C94.0729 167.016 106.194 178.014 117.996 186.578C129.585 194.989 140.797 201.002 151.551 205.056C162.175 209.062 172.282 211.13 181.778 211.747C191.208 212.359 199.97 211.537 207.966 209.813C223.956 206.365 236.723 199.344 245.472 193.252C246.039 192.842 246.498 192.188 246.748 191.432C246.998 190.676 247.019 189.878 246.807 189.214C246.595 188.549 246.167 188.07 245.615 187.882C245.064 187.695 244.435 187.812 243.864 188.21C252.489 181.984 257.024 176.778 257.024 176.693L259.64 181.329C259.968 181.142 266.234 169.861 269.208 152.847C273.54 128.071 270.792 100.3 261.98 72.2658C260.576 67.8116 259.105 64.0525 257.696 60.9079C252.123 48.4692 245.88 42.0823 242.537 39.0133C238.378 35.1953 231.838 30.4253 223.446 27.0779C222.425 26.6709 221.376 26.2852 220.294 25.9235C217.189 24.8848 214.061 24.1236 210.871 23.583C208.155 23.1227 205.777 22.8837 203.6 22.6936C202.657 22.6113 201.764 22.5388 201.053 22.4643C200.704 22.4277 200.387 22.3895 200.108 22.3471C199.834 22.3056 199.6 22.2606 199.408 22.2099C199.217 22.1597 199.079 22.1069 198.985 22.0534C198.94 22.0277 198.909 22.004 198.889 21.9841C198.87 21.9652 198.858 21.9494 198.851 21.937C198.843 21.9245 198.839 21.9079 198.839 21.8819C198.841 21.8555 198.851 21.819 198.873 21.7712C198.896 21.724 198.929 21.6686 198.978 21.6049C199.026 21.5419 199.088 21.4726 199.164 21.3967C199.74 20.822 200.221 20.2662 200.599 19.7325C200.958 19.226 201.223 18.7409 201.389 18.2801C201.548 17.8382 201.617 17.4182 201.59 17.0247C201.564 16.6434 201.448 16.2906 201.245 15.9709C201.047 15.6605 200.769 15.3857 200.42 15.1482C200.079 14.9161 199.67 14.7199 199.202 14.5611C198.288 14.2513 197.146 14.0833 195.851 14.0723C193.894 14.0722 192.182 14.425 190.693 14.9005C189.957 15.1358 189.281 15.3992 188.666 15.6598C188.052 15.9194 187.496 16.1773 187.008 16.3967C186.512 16.6194 186.096 16.7984 185.746 16.9123C185.571 16.9691 185.422 17.0064 185.297 17.0251C185.17 17.044 185.08 17.0418 185.021 17.0289C184.962 17.0157 184.946 16.9956 184.943 16.9828C184.931 16.9426 184.95 16.9844 184.92 16.9166C184.901 16.8727 184.872 16.7988 184.843 16.6709C184.813 16.5422 184.788 16.3748 184.771 16.1552C184.741 15.7569 184.802 15.3782 184.911 15.0204C185.025 14.6524 185.194 14.3016 185.388 13.9726C185.586 13.6349 185.807 13.3231 186.016 13.0381C186.123 12.8921 186.227 12.753 186.325 12.6176C186.422 12.4831 186.52 12.3418 186.604 12.2038C186.685 12.0694 186.78 11.8932 186.837 11.6927C186.867 11.5867 186.893 11.4532 186.892 11.301C186.89 11.1429 186.858 10.9621 186.773 10.7799C186.684 10.5931 186.555 10.4433 186.409 10.3305C186.267 10.2202 186.12 10.1527 185.994 10.1098C185.867 10.0664 185.742 10.0419 185.632 10.0276C185.518 10.0129 185.405 10.0068 185.295 10.006C185.071 10.0045 184.826 10.0246 184.566 10.058C184.294 10.0931 183.987 10.1452 183.649 10.2118C182.94 10.3518 182.053 10.5628 181.023 10.8274C181.023 10.8274 180.985 10.8369 180.985 10.8369C180.962 10.8428 180.939 10.8495 180.916 10.8569C179.773 11.2304 178.599 11.4629 177.373 11.6017C176.144 11.7406 174.869 11.7849 173.521 11.7856C170.793 11.7873 167.79 11.6123 164.465 11.7062C160.95 11.8055 157.205 12.1988 153.016 13.28C148.703 14.3931 144.194 16.1681 139.377 18.7756C138.282 17.8658 136.093 16.0961 133.6 14.3037C129.257 11.1818 124.878 8.50763 120.877 6.53614C119.831 6.02056 118.814 5.56171 117.833 5.15424C113.165 3.21464 109.829 2.6354 108.341 2.24761C108.298 2.23627 108.257 2.22616 108.223 2.21671C107.894 2.1291 107.894 2.11286 107.501 2.00197C106.253 1.65005 101.565 0.680774 98.9071 0.633454C98.3564 0.623628 97.8987 0.633067 97.5578 0.645162C96.682 0.676532 96.5742 0.723179 95.6798 0.789094C94.5003 0.875985 92.3311 0.949015 89.984 1.70236C88.2346 2.26385 86.0379 3.29935 83.8517 5.33736C83.2466 5.90141 82.5999 6.57817 81.9377 7.38964C76.8781 13.707 72.2818 21.1582 70.5802 28.8319C69.9314 31.7577 69.7325 34.5815 69.9878 37.2896C70.2237 39.7925 70.8393 42.1064 71.7546 44.2335C73.4876 48.2604 76.1573 51.3037 78.6742 53.5282C79.8859 54.5991 81.0279 55.4504 81.9419 56.0989C82.3925 56.4187 82.8039 56.7004 83.1089 56.9124C83.2673 57.0224 83.3968 57.1136 83.5031 57.191C83.612 57.2703 83.6782 57.3218 83.7107 57.3494L84.0519 53.9211C83.8414 54.0311 83.5845 54.1532 83.248 54.3099C82.9165 54.4642 82.5276 54.643 82.1059 54.846C81.2147 55.2751 80.2061 55.7989 79.1017 56.4956C76.4927 58.1417 73.9486 60.3841 71.5251 63.4777C70.7465 64.4716 70.0175 65.5066 69.3361 66.568C67.1595 69.9589 65.3735 73.8372 63.8795 78.0122C61.5052 84.6474 59.5538 92.9352 57.9371 103.187C57.0796 108.622 56.8037 113.845 57.1823 118.76C57.4389 122.092 58.0042 125.338 58.9533 128.454C60.8436 134.661 63.9924 139.504 67.7663 143.253C71.4389 146.902 75.3149 149.124 77.9962 150.405C81.7564 152.202 82.9303 152.361 82.938 152.387L83.0238 151.602Z" fill="black"/>
<path d="M215.302 106.364C215.302 106.364 238.761 78.6615 261.686 100.277C261.686 100.277 304.745 131.689 327.665 153.547C332.138 157.812 356.599 188.738 320.618 219.913C286.382 249.577 262.442 227.736 259.373 224.075C256.305 220.415 249.936 210.555 251.662 200.18C253.589 187.185 244.928 240.883 198.807 241.928C169.875 242.583 160.678 211.447 160.678 211.447L131.716 141.961C131.716 141.961 120.928 105.021 159.298 92.8535C187.768 83.8257 202.236 106.969 202.236 106.969C202.236 106.969 208.512 104.253 215.302 106.364Z" fill="white"/>
<path d="M215.553 106.576C215.608 106.636 216.808 105.288 219.755 102.859C222.052 100.965 225.779 98.1819 230.337 96.1224C232.421 95.1807 234.732 94.3656 237.201 93.8697C239.542 93.3997 242.047 93.2119 244.654 93.4899C247.143 93.7553 249.76 94.4485 252.449 95.7637C255.035 97.0286 257.729 98.8893 260.471 101.564C260.493 101.585 260.515 101.606 260.535 101.625C260.556 101.643 260.575 101.66 260.591 101.673C260.607 101.687 260.62 101.697 260.63 101.702C260.639 101.708 260.644 101.706 260.644 101.706C260.491 101.896 270.398 109.41 284.525 120.719C291.087 125.973 298.572 132.068 305.826 138.246C312.86 144.237 319.76 150.377 325.398 155.925C325.597 156.162 325.826 156.431 326.194 156.895C326.537 157.327 326.942 157.856 327.39 158.479C328.278 159.714 329.324 161.301 330.373 163.19C332.446 166.924 334.498 171.78 335.376 177.343C336.237 182.799 335.973 188.957 333.457 195.497C330.962 201.979 326.157 209.087 317.567 216.39C309.363 223.359 301.999 227.078 295.651 228.82C289.329 230.556 283.877 230.369 279.379 229.341C274.833 228.303 271.14 226.375 268.45 224.514C267.097 223.579 266.009 222.668 265.21 221.913C264.809 221.534 264.484 221.199 264.242 220.927C264.001 220.657 263.838 220.446 263.799 220.367C263.253 219.591 262.512 218.491 261.71 217.081C260.901 215.658 260.093 214.029 259.419 212.269C258.727 210.463 258.208 208.603 257.944 206.748C257.673 204.838 257.679 202.995 257.997 201.233C258 201.219 258.006 201.181 258.015 201.122C258.066 200.713 258.15 200.347 258.189 200.036C258.227 199.739 258.267 199.414 258.304 199.119C258.32 198.973 258.35 198.758 258.343 198.509C258.358 198.385 258.343 198.201 258.344 197.987C258.329 197.797 258.318 197.428 258.231 196.973C258.187 196.739 258.109 196.394 257.964 195.992C257.829 195.61 257.566 194.992 257.079 194.332C256.825 193.989 256.488 193.601 256.044 193.227C255.595 192.848 255.042 192.487 254.385 192.21C253.72 191.931 253.019 191.766 252.309 191.719C251.606 191.672 250.964 191.745 250.409 191.874C249.337 192.125 248.564 192.593 248.12 192.91C247.659 193.239 247.329 193.566 247.127 193.783C246.735 194.206 246.484 194.59 246.373 194.766C246.24 194.975 246.141 195.156 246.08 195.275C246.015 195.401 245.959 195.513 245.918 195.6C245.835 195.771 245.769 195.931 245.716 196.052C245.613 196.295 245.507 196.564 245.412 196.81C245.208 197.338 244.97 197.964 244.675 198.716C244.069 200.257 243.237 202.272 242.121 204.587C241.444 205.992 240.671 207.489 239.794 209.038C239.193 210.099 238.539 211.19 237.831 212.298C234.37 217.709 229.602 223.47 223.209 227.91C220.052 230.102 216.478 231.99 212.424 233.368C208.396 234.738 203.835 235.626 198.662 235.78C195.616 235.886 192.867 235.577 190.38 234.972C187.9 234.368 185.639 233.458 183.571 232.327C179.433 230.063 176.046 226.898 173.317 223.53C170.596 220.172 168.641 216.751 167.324 214.149C166.017 211.565 165.385 209.874 165.301 210.079L165.127 209.589C154.74 186.148 144.377 162.997 134.437 140.824L134.546 141.133C134.42 141.305 133.611 139.131 133.061 135.724C132.49 132.186 132.202 127.433 133.03 122.343C133.453 119.741 134.164 117.072 135.261 114.438C136.38 111.752 137.898 109.109 139.915 106.607C141.978 104.049 144.559 101.643 147.759 99.4922C151.041 97.2866 154.957 95.3602 159.598 93.8122C166.709 91.3986 172.82 91.1019 177.915 91.8316C183.385 92.6148 187.863 94.6077 191.306 96.7285C195.074 99.0495 197.827 101.664 199.521 103.497C199.591 103.573 199.66 103.648 199.728 103.723C201.226 105.371 202.055 106.564 202.258 106.852C202.601 106.712 204.271 106.153 206.221 105.891C209.857 105.401 212.83 105.907 215.2 106.677L215.553 106.576ZM215.4 106.051C212.939 105.318 209.77 105.115 206.22 105.858C204.05 106.311 202.278 107.08 202.272 107.052C202.259 107.056 202.245 107.057 202.233 107.057C202.22 107.058 202.208 107.056 202.197 107.053C202.187 107.049 202.178 107.044 202.171 107.038C202.164 107.032 202.16 107.025 202.158 107.016C202.17 107.013 201.388 105.693 199.733 103.723C199.668 103.646 199.602 103.568 199.535 103.489C197.921 101.597 195.269 98.8426 191.575 96.3212C188.205 94.0201 183.72 91.7438 178.116 90.6675C172.881 89.6624 166.5 89.6716 158.994 91.8931C154.16 93.3498 149.996 95.2162 146.43 97.42C142.949 99.571 140.059 102.03 137.682 104.711C135.357 107.334 133.545 110.143 132.153 113.037C130.788 115.874 129.84 118.764 129.202 121.595C127.956 127.132 127.922 132.331 128.194 136.273C128.457 140.076 129.007 142.616 128.882 142.788C128.882 142.788 128.89 142.823 128.91 142.881C128.931 142.938 128.96 143.016 128.991 143.097C137.684 165.62 146.77 189.118 156.043 212.841C156.002 213.17 156.525 215.323 157.805 218.453C159.12 221.67 161.267 225.989 164.464 230.334C167.667 234.688 172.001 239.173 177.711 242.555C180.583 244.256 183.787 245.668 187.338 246.639C190.905 247.614 194.774 248.131 198.946 248.072C205.332 247.964 211.128 246.937 216.368 245.231C221.635 243.515 226.287 241.129 230.373 238.36C238.607 232.781 244.529 225.659 248.668 219.277C249.519 217.964 250.3 216.674 251.015 215.427C252.058 213.606 252.97 211.853 253.765 210.216C255.074 207.519 256.041 205.179 256.723 203.429C257.05 202.588 257.317 201.874 257.487 201.422C257.54 201.303 257.607 201.101 257.653 200.981C257.656 200.952 257.655 200.972 257.607 201.04C257.603 201.075 257.557 201.139 257.515 201.224C257.468 201.3 257.396 201.448 257.282 201.629C257.187 201.776 256.951 202.139 256.576 202.546C256.382 202.756 256.058 203.076 255.603 203.401C255.166 203.713 254.399 204.178 253.332 204.428C252.78 204.557 252.14 204.629 251.44 204.582C250.733 204.535 250.034 204.371 249.373 204.093C248.717 203.817 248.167 203.458 247.719 203.08C247.278 202.708 246.942 202.322 246.691 201.982C246.207 201.327 245.95 200.716 245.817 200.343C245.676 199.949 245.6 199.615 245.559 199.393C245.476 198.962 245.461 198.623 245.454 198.471C245.438 198.292 245.451 198.157 245.453 198.083C245.473 197.917 245.479 197.87 245.479 197.87C245.485 197.859 245.458 198.039 245.43 198.267C245.399 198.511 245.359 198.831 245.308 199.236L245.326 199.124C244.796 202.465 244.92 205.73 245.47 208.801C246.001 211.766 246.924 214.536 248.021 217.019C249.09 219.441 250.332 221.606 251.552 223.429C252.748 225.216 253.935 226.691 254.948 227.78C255.279 228.146 255.688 228.559 256.14 228.986C256.599 229.419 257.139 229.901 257.754 230.413C258.977 231.431 260.532 232.597 262.396 233.764C266.109 236.09 271.107 238.46 277.236 239.637C283.373 240.815 290.517 240.765 298.422 238.362C306.307 235.965 314.77 231.282 323.668 223.434C333.121 215.103 338.721 206.642 341.597 198.483C344.499 190.25 344.547 182.552 343.246 175.931C341.932 169.25 339.24 163.62 336.647 159.471C335.325 157.355 334.005 155.585 332.853 154.207C332.271 153.511 331.728 152.909 331.241 152.407C330.753 151.902 330.313 151.489 329.931 151.166C323.966 145.648 316.782 139.596 309.544 133.754C302.057 127.712 294.385 121.793 287.634 116.708C272.892 105.602 262.867 98.6679 262.726 98.8439C262.749 98.8648 262.772 98.8852 262.793 98.904C262.815 98.9227 262.834 98.9394 262.85 98.9528C262.867 98.9662 262.879 98.976 262.888 98.9818C262.896 98.9876 262.899 98.9862 262.899 98.9862C259.811 96.1645 256.745 94.2036 253.772 92.8979C250.68 91.54 247.689 90.8918 244.878 90.725C241.941 90.5507 239.181 90.9007 236.669 91.5353C234.021 92.2044 231.595 93.2037 229.457 94.3044C224.784 96.7105 221.104 99.7991 218.896 101.885C216.052 104.573 214.996 106.09 215.051 106.15L215.4 106.051Z" fill="black"/>
<path d="M261.426 164.183C261.391 164.157 261.098 164.791 260.177 166.699C259.551 167.995 258.492 170.16 257.308 172.269C256.765 173.237 256.179 174.223 255.58 175.133C255.003 176.01 254.428 176.797 253.881 177.425C253.339 178.047 252.895 178.429 252.618 178.577C252.578 178.593 252.357 178.684 252.525 178.588C252.603 178.544 252.81 178.474 253.106 178.493C253.457 178.518 253.696 178.633 253.796 178.682C253.893 178.73 253.886 178.725 253.804 178.614C253.628 178.348 253.378 177.925 253.043 177.14C252.725 176.392 252.407 175.495 252.097 174.487C251.782 173.465 251.488 172.376 251.22 171.29C250.655 169.009 250.2 166.738 249.893 165.21C249.521 163.354 249.341 162.464 249.243 162.505C249.297 162.482 249.323 162.422 249.318 162.329C249.313 162.237 249.278 162.113 249.215 161.967C249.152 161.822 249.063 161.657 248.954 161.485C248.844 161.313 248.717 161.137 248.58 160.969C248.365 160.706 248.155 160.447 247.945 160.189C231.417 139.932 221.512 130.766 204.992 110.353C204.147 109.309 203.273 108.223 202.373 107.097C202.774 106.917 204.159 106.541 206.44 106.322C207.656 106.205 209.091 106.153 210.606 106.273C212.019 106.384 213.468 106.643 214.861 107.116C215.795 108.122 216.968 109.461 218.332 111.069C219.776 112.77 221.421 114.758 223.198 116.939C226.951 121.544 231.266 126.98 235.509 132.387C247.073 147.128 257.069 160.31 261.763 166.44L261.426 164.183ZM265.398 163.58C262.033 159.433 249.117 143.646 237.929 130.42C233.493 125.175 228.938 119.87 224.976 115.428C223.096 113.319 221.344 111.399 219.794 109.763C218.274 108.16 216.947 106.83 215.879 105.859C215.76 105.751 215.638 105.681 215.532 105.659C213.852 105.311 212.177 105.238 210.625 105.314C209.046 105.39 207.588 105.62 206.377 105.874C203.605 106.456 202.222 107.068 202.185 106.974L202.133 107.146C203.034 108.322 203.902 109.461 204.733 110.559C220.582 131.498 227.102 143.314 242.797 164.223C242.996 164.488 243.198 164.756 243.402 165.026L242.739 163.49C242.65 163.528 242.729 164.508 243.072 166.485C243.357 168.122 243.842 170.52 244.507 173.017C244.821 174.2 245.182 175.428 245.587 176.613C245.982 177.767 246.431 178.917 246.936 179.958C247.425 180.963 248.026 181.995 248.772 182.842C249.151 183.272 249.619 183.714 250.188 184.077C250.768 184.446 251.493 184.757 252.341 184.843C253.173 184.926 253.933 184.781 254.575 184.542C255.21 184.306 255.758 183.968 256.215 183.621C257.124 182.931 257.911 182.021 258.565 181.138C259.257 180.204 259.908 179.155 260.495 178.112C261.112 177.016 261.689 175.876 262.203 174.794C263.343 172.396 264.253 170.118 264.796 168.672C265.601 166.532 265.754 165.856 265.739 165.838L265.398 163.58Z" fill="black"/>
<path d="M314.39 148.321C314.39 148.321 286.969 138.772 264.001 167.02C241.675 194.477 250.159 220.291 270.736 231.65C291.313 243.008 318.979 228.846 332.217 207.645C345.456 186.445 342.418 159.054 314.39 148.321Z" fill="white"/>
<path d="M315.311 145.677C315.26 145.656 314.659 145.248 312.038 144.815C311.499 144.727 310.873 144.644 310.164 144.575C307.697 144.336 303.145 144.168 297.576 145.101C293.245 145.827 287.335 147.376 280.913 150.955C278.392 152.359 275.697 154.129 272.918 156.379C269.987 158.752 266.612 161.946 263.104 166.291C258.029 172.58 253.965 179.461 251.67 186.769C249.709 193.014 249.109 199.368 250.125 205.566C251.051 211.214 253.3 216.59 256.851 221.381C260.205 225.907 264.671 229.838 270.064 232.869C275.366 235.848 281.18 237.225 287.179 237.213C293.106 237.201 299.129 235.834 304.9 233.425C310.719 230.996 316.244 227.525 321.151 223.361C326.202 219.074 330.561 214.084 333.971 208.741C337.574 203.093 339.957 197.169 341.173 191.383C342.503 185.054 342.423 178.985 341.162 173.485C339.694 167.082 336.693 161.698 332.811 157.36C327.558 151.488 321.058 147.911 315.391 145.707L315.311 145.677ZM313.389 150.936C318.556 152.88 324.286 155.953 328.911 160.915C332.311 164.564 334.997 169.12 336.395 174.632C337.6 179.38 337.819 184.753 336.743 190.501C335.76 195.758 333.701 201.243 330.464 206.551C327.384 211.6 323.383 216.373 318.689 220.515C314.13 224.538 308.981 227.906 303.558 230.291C298.181 232.655 292.602 234.021 287.146 234.133C281.636 234.245 276.299 233.079 271.409 230.432C266.297 227.663 262.063 224.042 258.876 219.861C255.504 215.437 253.346 210.447 252.435 205.178C251.434 199.392 251.953 193.396 253.812 187.44C255.991 180.463 259.912 173.835 264.898 167.749C268.325 163.565 271.615 160.536 274.463 158.327C277.164 156.23 279.779 154.633 282.215 153.408C288.432 150.282 294.024 149.31 298.041 149.054C303.207 148.726 307.232 149.499 309.329 149.966C309.932 150.1 310.471 150.232 310.92 150.343C313.125 150.886 313.519 150.986 313.469 150.965L313.389 150.936Z" fill="black"/>
<path d="M226.346 153.92C226.346 153.92 198.592 144.256 175.345 172.847C152.747 200.638 161.335 226.765 182.162 238.262C202.989 249.759 230.991 235.425 244.39 213.966C257.789 192.508 254.714 164.785 226.346 153.92Z" fill="white"/>
<path d="M226.724 152.834C226.706 152.829 226.038 152.442 224.4 152.218C223.777 152.133 222.868 152.072 221.771 152.048C218.621 151.98 216.754 152.191 214.066 152.356C212.85 152.431 212.484 152.398 211.321 152.49C210.849 152.527 210.252 152.582 209.563 152.663C207.2 152.94 205.189 153.363 203.621 153.762C202.954 153.931 202.886 154.011 202.192 154.149C200.978 154.39 197.126 154.42 192.637 156.371C192.56 156.405 192.482 156.439 192.403 156.474C188.309 158.292 181.17 162.448 173.701 171.51C168.373 177.971 164.204 185.047 161.88 192.528C159.826 199.137 159.323 205.723 160.423 212.009C161.479 218.043 163.967 223.538 167.569 228.274C171.251 233.114 175.977 237.01 181.249 239.917C186.332 242.72 192.23 244.281 198.808 244.19C204.612 244.109 210.704 242.741 216.765 240.116C222.476 237.643 228.032 234.106 233.055 229.719C238 225.4 242.343 220.331 245.747 214.814C249.234 209.163 251.545 203.208 252.674 197.351C253.883 191.082 253.713 185.08 252.369 179.649C250.822 173.405 247.803 168.196 243.948 164.02C238.631 158.26 232.133 154.88 226.758 152.846L226.724 152.834ZM225.934 154.996C231.101 157 237.19 160.275 242.086 165.718C245.623 169.649 248.344 174.506 249.692 180.293C250.866 185.33 250.956 190.915 249.75 196.768C248.622 202.241 246.384 207.819 243.032 213.119C239.747 218.315 235.57 223.089 230.83 227.147C226.014 231.27 220.731 234.557 215.358 236.83C209.656 239.241 204.029 240.44 198.767 240.479C192.825 240.524 187.578 239.097 183.075 236.608C178.221 233.926 173.957 230.326 170.696 225.925C167.51 221.625 165.378 216.689 164.515 211.321C163.616 205.73 164.117 199.834 166.016 193.824C168.172 186.998 172.003 180.406 176.988 174.184C183.819 165.661 190.384 161.358 193.839 159.182C193.908 159.139 193.976 159.096 194.043 159.054C197.94 156.611 200.932 154.631 202.192 154.149C202.8 153.916 203.004 153.918 203.621 153.762C205.189 153.363 207.2 152.94 209.563 152.663C210.252 152.582 210.849 152.527 211.321 152.49C212.307 152.412 213.002 152.331 214.066 152.356C216.284 152.41 219.069 152.933 221.521 153.667C222.533 153.97 223.332 154.258 223.899 154.442C225.37 154.918 225.986 155.013 225.967 155.008L225.934 154.996Z" fill="black"/>
<path d="M231.425 168.667C225.418 163.439 206.328 158.843 190.243 175.596C172.059 194.538 171.67 211.187 182.07 221.688C192.469 232.188 216.216 231.709 228.476 216.295C240.737 200.881 241.356 177.309 231.425 168.667Z" fill="black" stroke="black" stroke-width="3.77953" stroke-linecap="round" stroke-linejoin="round"/>
<path d="M320.911 163.985C314.904 158.757 295.814 154.161 279.729 170.915C261.545 189.856 261.157 206.505 271.556 217.006C281.955 227.507 303.812 224.019 316.072 208.605C328.332 193.191 330.842 172.627 320.911 163.985Z" fill="black" stroke="black" stroke-width="3.77953" stroke-linecap="round" stroke-linejoin="round"/>
<path d="M318.646 186.408C318.646 186.408 311.598 210.988 280.479 212.487C272.495 212.871 296.757 218.307 307.955 208.373C319.153 198.439 320.041 187.339 318.646 186.408Z" fill="white"/>
<path d="M231.166 192.945C231.166 192.945 224.118 217.525 193 219.024C185.015 219.408 209.277 224.844 220.475 214.91C231.674 204.977 232.562 193.876 231.166 192.945Z" fill="white"/>
<path d="M60.8589 177.638C61.6577 175.686 67.692 166.817 70.4877 165.323C72.9645 164 72.282 169.932 72.282 169.932C75.1917 166.839 76.6174 161.467 77.9469 159.614C88.322 145.149 102.228 105.787 145.123 103.421C158.197 102.7 172.834 120.752 171.22 130.55C169.044 143.759 148.866 151.491 143.984 162.741C135.961 181.225 117.035 221.307 89.4914 228.541C78.7461 231.363 64.3647 225.98 58.3627 216.631C51.3266 205.671 55.7919 190.022 60.8589 177.638Z" fill="#E5E5E5"/>
<path d="M63.0942 178.552C63.0979 178.528 63.134 178.433 63.1993 178.291C63.2587 178.161 63.3415 177.994 63.4503 177.788C63.6442 177.42 63.9147 176.941 64.2688 176.354C64.8664 175.362 65.7124 174.046 66.7104 172.629C67.5753 171.4 68.5576 170.093 69.4776 169.017C69.9088 168.513 70.3119 168.076 70.6724 167.726C71.0506 167.359 71.2666 167.196 71.4262 167.079C71.4489 167.056 71.4249 167.064 71.3436 167.072C71.2616 167.08 71.1285 167.086 70.9651 167.05C70.7999 167.013 70.6503 166.942 70.5298 166.851C70.4157 166.765 70.3522 166.679 70.3249 166.628C70.2947 166.575 70.3059 166.559 70.321 166.572C70.3399 166.587 70.3657 166.631 70.3955 166.7C70.456 166.841 70.5138 167.053 70.5607 167.316C70.6537 167.838 70.6846 168.44 70.6982 168.948C70.7095 169.428 70.7059 169.776 70.7429 169.755C70.529 169.995 70.4489 170.266 70.5166 170.518C70.5844 170.771 70.7956 170.991 71.1137 171.138C71.4317 171.286 71.8362 171.353 72.2565 171.326C72.6767 171.3 73.0862 171.182 73.4131 170.994C74.2177 170.09 74.8903 169.054 75.4644 168.006C76.036 166.963 76.5237 165.88 76.9493 164.868C77.3773 163.851 77.7478 162.894 78.0782 162.098C78.2457 161.695 78.3993 161.341 78.5449 161.036C78.6931 160.725 78.8195 160.491 78.9302 160.318C80.2563 158.45 81.6268 156.199 83.0677 153.742C84.5322 151.245 86.0867 148.506 87.7773 145.653C91.2688 139.759 95.2471 133.534 100.186 127.697C105.33 121.617 111.322 116.195 118.526 112.109C126.161 107.778 134.954 105.066 145.185 104.509C146.721 104.428 148.265 104.63 149.779 105.044C151.368 105.479 152.923 106.148 154.402 106.97C157.653 108.776 160.517 111.306 162.754 113.848C162.754 113.848 162.769 113.864 162.769 113.864C165.344 116.792 167.226 119.884 168.357 122.653C168.973 124.16 169.366 125.568 169.553 126.835C169.75 128.172 169.713 129.32 169.493 130.265C169.187 131.729 168.625 133.09 167.888 134.37C167.123 135.7 166.156 136.967 165.054 138.184C162.783 140.692 159.907 143.029 156.909 145.349C154.022 147.584 150.66 150.069 147.85 152.592C146.459 153.842 145.093 155.195 143.885 156.656C142.723 158.061 141.652 159.63 140.846 161.377C139.082 165.257 136.555 170.761 133.492 176.728C133.251 177.196 133.006 177.671 132.756 178.152C129.699 184.012 125.754 190.999 121.051 197.772C116.764 203.947 111.75 210.086 106.096 215.065C103.401 217.438 100.569 219.54 97.6084 221.257C94.7151 222.935 91.7061 224.24 88.5838 225.075C86.383 225.681 83.8907 225.902 81.2398 225.711C78.6259 225.524 75.9347 224.941 73.346 224.005C70.7403 223.063 68.3011 221.785 66.1872 220.257C64.0142 218.686 62.2404 216.892 60.9456 214.974C59.353 212.596 58.4198 209.975 57.9407 207.215C57.4186 204.208 57.4469 201.065 57.7808 198.013C58.6394 190.17 61.6633 182.16 63.0942 178.552ZM58.6233 176.723C57.1299 180.267 53.5941 188.761 52.3657 197.323C51.8816 200.698 51.6968 204.392 52.2056 208.095C52.6755 211.515 53.7462 215.012 55.7824 218.287C57.434 220.957 59.6703 223.358 62.3105 225.407C64.8792 227.401 67.8229 229.057 70.9533 230.294C74.062 231.523 77.3558 232.339 80.6398 232.658C83.966 232.982 87.2881 232.796 90.4018 232.006C94.2286 231.016 97.8377 229.465 101.218 227.532C104.673 225.555 107.903 223.17 110.903 220.548C117.173 215.067 122.581 208.424 127.067 201.946C132.008 194.812 136.075 187.519 139.163 181.453C139.416 180.955 139.664 180.463 139.907 179.977C143.018 173.751 145.449 168.147 147.124 164.103C147.563 162.98 148.214 161.844 149.051 160.682C149.92 159.475 150.968 158.267 152.138 157.052C154.561 154.535 157.473 152.016 160.327 149.411C163.163 146.821 166.101 144.007 168.415 140.956C169.548 139.462 170.569 137.865 171.364 136.158C172.133 134.508 172.701 132.736 172.949 130.835C173.125 129.387 173.005 127.841 172.646 126.248C172.305 124.73 171.739 123.133 170.969 121.499C169.558 118.504 167.396 115.254 164.592 112.217L164.577 112.201C162.14 109.563 159.032 106.9 155.487 104.986C153.869 104.112 152.142 103.386 150.352 102.911C148.645 102.458 146.865 102.23 145.063 102.333C134.506 102.922 125.389 105.729 117.454 110.221C109.977 114.454 103.784 120.048 98.4956 126.264C93.4218 132.226 89.3469 138.557 85.8002 144.475C84.0817 147.343 82.5075 150.078 81.0391 152.544C79.5858 154.984 78.2429 157.146 76.965 158.909C76.7442 159.199 76.5364 159.534 76.3389 159.888C76.1412 160.242 75.9432 160.634 75.7433 161.047C75.3036 161.954 74.9056 162.839 74.466 163.747C74.0043 164.698 73.5074 165.654 72.9524 166.544C72.3927 167.441 71.7966 168.234 71.1522 168.869L73.8223 170.109C73.8601 170.088 73.9402 169.682 74.003 169.103C74.0661 168.52 74.1141 167.725 74.068 166.946C74.0454 166.547 73.994 166.116 73.8939 165.699C73.8425 165.485 73.7743 165.261 73.6832 165.038C73.591 164.814 73.4686 164.574 73.3015 164.341C73.1314 164.104 72.9079 163.864 72.6166 163.662C72.3161 163.454 71.9692 163.304 71.587 163.232C71.2035 163.159 70.8311 163.174 70.489 163.24C70.1462 163.307 69.8309 163.426 69.5494 163.566C68.9798 163.849 68.428 164.258 67.936 164.674C67.4099 165.12 66.874 165.642 66.3546 166.187C65.24 167.358 64.1053 168.739 63.1389 169.988C62.0182 171.436 61.0436 172.81 60.3458 173.846C59.9301 174.464 59.5888 174.996 59.3245 175.431C59.1756 175.676 59.0461 175.899 58.9368 176.098C58.8173 176.315 58.7098 176.525 58.6233 176.723Z" fill="black"/>
<path d="M102.399 49.3734C102.399 49.3734 119.774 44.1234 120.899 37.7484C122.024 31.3734 102.284 7.23068 94.2735 20.4984C90.2735 27.1234 101.703 6.79711 110.774 28.1234C114.234 36.2587 102.056 28.2873 101.149 33.1234C100.561 36.257 112.962 32.6401 113.399 36.3734C113.607 38.1553 108.031 36.8997 104.031 39.8001C99.3361 43.205 96.4586 50.5884 102.399 49.3734Z" fill="black" stroke="black" stroke-width="3.99999" stroke-linecap="round" stroke-linejoin="round"/>
<path d="M40.1248 234.596C47.551 243.652 76.6324 246.1 83.8874 236.583M65.9847 163.626C65.9847 163.626 55.5238 163.374 47.0238 173.874" stroke="white" stroke-width="3.77953" stroke-linecap="round" stroke-linejoin="round"/>
<path d="M199.204 20.728C199.15 20.6899 199.008 20.6237 198.785 20.7276C198.628 20.8005 198.405 20.9299 198.137 21.1697C197.833 21.4414 197.368 21.9504 196.862 22.8284C196.821 22.8993 196.779 22.9743 196.737 23.053C196.408 23.6577 195.946 24.6558 195.687 25.8001C195.58 26.2691 195.502 26.7914 195.493 27.3352C195.485 27.8341 195.535 28.3719 195.691 28.9112C195.771 29.19 195.884 29.4644 196.043 29.7165C196.201 29.965 196.401 30.1891 196.654 30.3687C196.901 30.5443 197.17 30.6589 197.449 30.7228C197.718 30.7845 197.985 30.7969 198.239 30.7813C198.486 30.7662 198.733 30.7233 198.971 30.6656C199.206 30.6087 199.445 30.5349 199.684 30.4512C200.147 30.2885 200.643 30.0773 201.154 29.855C202.15 29.4215 203.26 28.9212 204.456 28.5678C205.623 28.2231 206.856 28.0225 208.131 28.1552C208.737 28.2178 209.222 28.3303 209.605 28.4701C209.988 28.61 210.259 28.7736 210.447 28.9351C210.634 29.0951 210.75 29.2615 210.82 29.427C210.891 29.5963 210.926 29.7926 210.91 30.0211C210.895 30.2562 210.825 30.5236 210.691 30.8146C210.554 31.1119 210.355 31.4221 210.093 31.7318C209.54 32.3872 208.751 32.9943 207.798 33.4712C207.047 33.8531 206.253 34.3335 205.512 34.8512C204.668 35.4405 203.936 36.047 203.334 36.6353C203.3 36.6674 203.268 36.6994 203.236 36.7315C202.498 37.4685 201.915 38.2263 201.544 38.9862C201.339 39.4039 201.197 39.8249 201.128 40.2457C201.054 40.6948 201.064 41.1371 201.165 41.5648C201.28 42.0535 201.45 42.4525 201.667 42.777C201.897 43.1212 202.175 43.3707 202.474 43.5478C202.784 43.7307 203.11 43.8323 203.423 43.8885C203.69 43.9364 203.959 43.9534 204.218 43.9552C204.272 43.9556 204.327 43.9552 204.382 43.9542C205.016 43.9421 205.668 43.8488 206.239 43.8325C206.568 43.8231 206.855 43.837 207.121 43.8814C207.499 43.9444 207.774 44.061 207.969 44.1749C207.811 44.0192 207.573 43.8153 207.204 43.632C206.941 43.5016 206.644 43.3973 206.297 43.3127C205.685 43.1632 205.021 43.1017 204.445 43.0083C204.396 43.0003 204.348 42.9924 204.301 42.9837C204.075 42.9437 203.867 42.8962 203.68 42.8335C203.459 42.7599 203.275 42.6684 203.121 42.5507C202.978 42.4408 202.848 42.2986 202.737 42.1021C202.631 41.9132 202.53 41.6535 202.46 41.2859C202.415 41.0366 202.419 40.7732 202.479 40.491C202.535 40.224 202.641 39.9353 202.806 39.6268C203.109 39.0592 203.599 38.4435 204.279 37.8058C204.309 37.7782 204.338 37.7508 204.368 37.7233C204.919 37.2174 205.605 36.6866 206.402 36.1741C207.104 35.7229 207.85 35.3137 208.536 35.0073C209.674 34.4815 210.688 33.7736 211.456 32.9339C211.821 32.5349 212.133 32.1022 212.369 31.6451C212.6 31.199 212.764 30.7205 212.826 30.2253C212.887 29.7358 212.849 29.2318 212.677 28.7429C212.508 28.2581 212.219 27.8171 211.818 27.4391C211.423 27.0661 210.931 26.7644 210.356 26.5336C209.784 26.3034 209.122 26.1408 208.376 26.0473C206.74 25.8436 205.207 26.0772 203.854 26.4505C202.489 26.8272 201.23 27.3719 200.268 27.7737C199.749 27.99 199.32 28.1645 198.941 28.2918C198.751 28.3557 198.587 28.4031 198.445 28.4356C198.299 28.4689 198.188 28.4839 198.105 28.4879C198.022 28.4921 197.98 28.4843 197.967 28.4811C197.956 28.478 197.975 28.4837 197.99 28.4932C198.009 28.5057 198.005 28.5103 197.986 28.4838C197.967 28.4532 197.93 28.3865 197.893 28.2645C197.808 27.985 197.768 27.6768 197.764 27.3477C197.76 26.989 197.802 26.6167 197.866 26.2491C198.027 25.3561 198.35 24.4654 198.563 23.8892C198.574 23.8624 198.633 23.7014 198.643 23.6746C198.99 22.7393 199.146 22.3166 199.258 21.8523C199.338 21.5204 199.36 21.282 199.363 21.112C199.367 20.8751 199.259 20.7671 199.204 20.728Z" fill="black"/>
<path d="M125.107 21.7832C125.107 21.7832 133.142 27.9589 136.5 36.4442L125.107 21.7832Z" fill="black"/>
<path d="M125.107 21.7837C124.882 22.0761 124.326 23.0671 124.741 23.9296C125.161 24.804 126.765 25.7228 128.162 27.221C129.305 28.4471 130.45 30.2308 131.632 31.7302C131.894 32.0626 132.16 32.3818 132.432 32.6773C133.73 34.0852 135.872 35.7121 136.501 36.4447C136.449 35.2814 136.574 32.8498 135.62 30.6459C135.441 30.2334 135.223 29.8229 134.975 29.4182C133.819 27.5294 132.2 26.0089 130.927 24.6435C129.366 22.9699 128.21 21.4052 127.199 21.0582C126.184 20.7099 125.329 21.4945 125.107 21.7837Z" fill="black"/>
</svg>
