<svg width="311" height="410" viewBox="0 0 311 410" fill="none" xmlns="http://www.w3.org/2000/svg">
<path d="M30.3078 136.588C30.3078 136.588 14.9016 148.721 15.1853 169.919" stroke="black" stroke-width="4" stroke-linecap="round" stroke-linejoin="round"/>
<path d="M56.6868 132.66C56.6868 132.66 30.5237 140.085 25.9275 172.258" stroke="black" stroke-width="4" stroke-linecap="round" stroke-linejoin="round"/>
<path d="M275.934 61.741L297.317 36.0547" stroke="black" stroke-width="4" stroke-linecap="round" stroke-linejoin="round"/>
<path d="M268.834 53.7414L281.531 32.166" stroke="black" stroke-width="4" stroke-linecap="round" stroke-linejoin="round"/>
<path d="M42.261 353.447H13.3582" stroke="black" stroke-width="3.4801" stroke-linecap="round" stroke-linejoin="round"/>
<path d="M42.8357 341.426L2.177 337.891" stroke="black" stroke-width="4" stroke-linecap="round" stroke-linejoin="round"/>
<path d="M89.2215 326.465C89.2215 326.465 66.6417 346.286 62.7667 348.661C58.8917 351.036 53.1417 354.036 61.5167 372.661C69.8917 391.286 79.7667 403.911 92.1417 404.536C104.517 405.161 128.767 404.911 130.517 402.286C138.269 390.657 121.709 383.027 107.029 383.456C102.303 383.594 106.226 374.851 109.529 373.472C109.529 373.472 127.312 364.781 131.945 358.768C131.945 358.768 124.284 353.902 89.2215 326.465Z" fill="#E5E5E5"/>
<path d="M90.4666 327.883C90.4666 327.889 89.8685 328.44 87.8911 330.191C86.0529 331.818 82.6455 334.818 78.7483 338.191C75.8735 340.679 72.6155 343.471 69.8435 345.78C68.5323 346.871 67.3135 347.868 66.2966 348.671C65.7974 349.065 65.339 349.418 64.9377 349.716C64.5474 350.005 64.1804 350.265 63.8691 350.46C62.8518 351.102 61.9891 351.625 61.2417 352.353C60.8842 352.701 60.5711 353.082 60.3091 353.519C60.0449 353.96 59.8189 354.48 59.6577 355.114C59.4922 355.765 59.3917 356.549 59.3962 357.501C59.3962 358.485 59.5179 359.63 59.7795 360.965C60.3484 363.867 61.5591 367.447 63.4883 371.774C63.5773 371.973 63.6652 372.17 63.7534 372.366C65.8045 376.918 67.8419 380.892 69.8767 384.337C72.1445 388.178 74.4358 391.408 76.762 394.044C79.146 396.746 81.6102 398.875 84.1707 400.376C86.6621 401.838 89.3326 402.758 92.2212 402.962C95.151 403.165 98.9266 403.324 103.121 403.395C106.921 403.458 111.184 403.449 115.261 403.315C117.153 403.252 119.022 403.162 120.771 403.038C121.171 403.01 121.566 402.98 121.953 402.947C123.154 402.848 124.305 402.728 125.346 402.586C125.995 402.497 126.598 402.4 127.142 402.295C127.668 402.192 128.128 402.083 128.514 401.969C128.894 401.857 129.17 401.749 129.355 401.653C129.444 401.607 129.493 401.573 129.518 401.555C129.539 401.539 129.528 401.545 129.488 401.599C130.365 400.286 130.895 399.044 131.125 397.881C131.343 396.774 131.293 395.725 130.997 394.727C130.711 393.761 130.187 392.816 129.415 391.904C128.665 391.019 127.689 390.174 126.498 389.39C124.196 387.876 121.16 386.639 117.687 385.817C114.352 385.027 110.677 384.638 107.067 384.755C106.676 384.769 106.294 384.738 105.929 384.651C105.564 384.564 105.22 384.421 104.908 384.214C104.597 384.008 104.338 383.751 104.131 383.457C103.928 383.167 103.782 382.851 103.683 382.53C103.488 381.9 103.463 381.224 103.526 380.576C103.59 379.925 103.748 379.249 103.968 378.587C104.404 377.271 105.113 375.917 105.945 374.782C106.363 374.212 106.826 373.679 107.318 373.228C107.785 372.799 108.312 372.414 108.885 372.153C108.91 372.104 113.413 369.85 118.21 367.018C120.751 365.518 123.328 363.889 125.542 362.281C126.682 361.454 127.702 360.648 128.564 359.882C128.861 359.618 129.136 359.362 129.387 359.115C128.036 358.199 125.832 356.658 122.669 354.347C114.08 348.072 101.858 338.726 88.0586 327.951L90.4666 327.883ZM90.3845 324.979C104.326 335.912 116.128 345.009 124.794 351.464C130.428 355.66 132.929 357.355 132.845 357.35L133.275 359.793C132.607 360.645 131.737 361.509 130.739 362.37C129.764 363.211 128.644 364.068 127.434 364.923C125.087 366.582 122.395 368.236 119.789 369.732C114.817 372.586 110.207 374.811 110.174 374.79C110.174 374.79 110.173 374.792 110.169 374.794C110.166 374.796 110.16 374.799 110.152 374.802C110.145 374.806 110.136 374.81 110.126 374.814C110.116 374.818 110.105 374.822 110.094 374.826C109.875 374.908 109.584 375.083 109.242 375.378C108.907 375.667 108.557 376.043 108.216 376.485C107.529 377.374 106.934 378.456 106.568 379.479C106.386 379.99 106.269 380.461 106.218 380.867C106.166 381.282 106.19 381.576 106.24 381.767C106.264 381.857 106.29 381.914 106.312 381.951C106.332 381.985 106.353 382.011 106.38 382.032C106.408 382.055 106.46 382.086 106.555 382.112C106.652 382.139 106.794 382.161 106.991 382.158C110.834 382.056 114.733 382.49 118.278 383.347C121.959 384.237 125.277 385.587 127.873 387.308C129.221 388.202 130.384 389.203 131.311 390.305C132.268 391.443 132.973 392.688 133.367 394.028C133.778 395.422 133.839 396.875 133.547 398.359C133.243 399.9 132.563 401.444 131.546 402.972C131.402 403.189 131.227 403.361 131.058 403.495C130.885 403.633 130.698 403.749 130.512 403.848C130.134 404.048 129.693 404.214 129.231 404.354C128.749 404.501 128.207 404.632 127.63 404.749C127.031 404.871 126.38 404.98 125.698 405.08C124.603 405.239 123.407 405.374 122.177 405.488C121.78 405.525 121.376 405.561 120.966 405.594C119.182 405.74 117.28 405.855 115.366 405.944C111.252 406.137 106.927 406.221 103.104 406.24C98.8863 406.261 95.0403 406.205 92.0623 406.109C88.6218 405.994 85.42 405.031 82.4563 403.445C79.4258 401.824 76.5771 399.516 73.8962 396.652C71.2801 393.858 68.7563 390.464 66.313 386.484C64.1194 382.912 61.9588 378.815 59.8213 374.153C59.7293 373.953 59.6371 373.751 59.5449 373.547C57.5144 369.068 56.1489 365.156 55.488 361.81C55.1813 360.256 55.0269 358.828 55.0237 357.516C55.0237 356.24 55.1603 355.079 55.438 354.02C55.7112 352.979 56.1112 352.064 56.6111 351.256C57.1046 350.458 57.6768 349.796 58.2761 349.234C59.4399 348.144 60.7612 347.398 61.6641 346.862C61.8363 346.761 62.1064 346.582 62.4668 346.325C62.8253 346.069 63.2517 345.751 63.7351 345.38C64.7198 344.624 65.9173 343.668 67.2266 342.602C69.9852 340.355 73.2595 337.602 76.146 335.154C79.8633 332.001 83.6953 328.707 85.355 327.282C87.354 325.566 87.9718 325.039 87.9763 325.046L90.3845 324.979Z" fill="black"/>
<path d="M201.188 14.9584C201.188 14.9584 218.14 -7.99374 237.531 3.53296C256.922 15.0597 238.479 38.1763 238.479 38.1763C238.479 38.1763 227.751 22.9322 201.188 14.9584Z" fill="#E5E5E5"/>
<path d="M201.858 15.4545C201.848 15.4615 202.159 15.0839 203.342 13.6432C203.684 13.2273 204.135 12.6742 204.665 12.0575C206.107 10.3791 208.685 7.5725 212.207 5.10886C214.601 3.43416 217.528 1.85134 220.847 0.988071C221.745 0.754321 222.689 0.568664 223.671 0.449314C225.742 0.197544 228.003 0.238774 230.393 0.760044C232.635 1.24921 235.003 2.16356 237.449 3.67099C239.795 5.11652 241.586 6.75083 242.896 8.52069C244.165 10.2341 244.969 12.0556 245.406 13.9293C245.833 15.7661 245.906 17.647 245.723 19.5167C245.542 21.3688 245.111 23.201 244.533 24.9529C243.413 28.352 241.751 31.4185 240.371 33.6562C240.324 33.7322 240.277 33.8075 240.23 33.8823C238.927 35.9698 237.667 37.5724 237.685 37.5435C237.768 37.6854 237.885 37.8041 238.026 37.8882C238.167 37.9724 238.327 38.0192 238.49 38.0241C238.653 38.029 238.814 37.9919 238.958 37.9163C239.101 37.8407 239.223 37.7292 239.31 37.5924C239.266 37.5167 236.487 33.645 230.393 28.8121C226.299 25.5666 221.484 22.4976 215.995 19.8134C210.54 17.1454 205.461 15.3663 201.427 14.1609L201.858 15.4545ZM200.948 15.7576C204.91 16.9524 209.894 18.7363 215.216 21.3915C220.572 24.0638 225.248 27.1087 229.197 30.3046C234.906 34.9244 237.686 38.8277 237.648 38.7619L239.273 38.8108C239.291 38.7819 240.581 37.0926 241.885 34.8879C241.932 34.8089 241.978 34.7293 242.026 34.649C243.403 32.2904 245.013 29.0287 246.02 25.4031C246.539 23.5351 246.896 21.5786 246.981 19.6045C247.068 17.6093 246.877 15.6162 246.314 13.69C245.739 11.7244 244.784 9.85966 243.381 8.14289C241.935 6.3729 240.029 4.78197 237.612 3.39658C235.09 1.95075 232.674 1.10512 230.411 0.670536C228.001 0.207696 225.739 0.205907 223.672 0.463047C222.692 0.585077 221.748 0.766361 220.847 0.988071C217.524 1.80536 214.511 3.22952 211.968 4.73914C208.254 6.94414 205.264 9.50428 203.614 11.0486C202.996 11.6275 202.487 12.1369 202.099 12.5517C200.777 13.9645 200.524 14.4568 200.517 14.464L200.948 15.7576Z" fill="black"/>
<path d="M99.6258 4.54019C95.0098 4.44169 88.1417 6.69766 83.1417 12.2602C63.1417 34.5102 80.7256 54.8544 90.8917 53.5102C82.4332 63.4414 59.63 102.262 73.3777 143.723C59.1301 147.204 45.594 174.342 45.0157 192.51C44.5833 206.09 52.5904 224.141 52.5904 224.141C48.9744 230.953 48.2723 248.794 48.5784 253.793C50.8229 290.444 62.8942 310.026 85.6417 329.16C100.078 341.302 129.239 359.577 135.642 362.66C175.162 381.687 204.92 413.538 221.217 406.411C233.565 401.01 251.961 388.361 257.793 377.536C261.479 370.694 267.336 359.084 256.043 354.286C241.782 348.227 231.7 366.426 222.142 368.16C218.125 368.888 209.892 353.41 209.142 351.16C209.142 351.16 265.128 333.725 271.967 280.975C282.487 199.829 247.392 163.91 247.392 163.91C247.392 163.91 263.083 143.209 262.308 115.218C261.851 98.7087 255.504 79.3758 250.02 68.9149C242.774 55.0913 248.89 40.0984 228.554 25.4388C212.94 14.1831 188.738 7.61711 152.825 11.3175C152.825 11.3175 133.555 14.1109 127.805 17.8609C127.805 17.8609 108.83 4.73658 99.6258 4.54019Z" fill="#E5E5E5"/>
<path d="M99.6258 4.54019C95.0098 4.44169 88.1417 6.69766 83.1417 12.2602C63.1417 34.5102 80.7256 54.8544 90.8917 53.5102C82.4332 63.4414 59.63 102.262 73.3777 143.723C59.1301 147.204 45.594 174.342 45.0157 192.51C44.5833 206.09 52.5904 224.141 52.5904 224.141C48.9744 230.953 48.2723 248.794 48.5784 253.793C50.8229 290.444 62.8942 310.026 85.6417 329.16C100.078 341.302 129.239 359.577 135.642 362.66C175.162 381.687 204.92 413.538 221.217 406.411C233.565 401.01 251.961 388.361 257.793 377.536C261.479 370.694 267.336 359.084 256.043 354.286C241.782 348.227 231.7 366.426 222.142 368.16C218.125 368.888 209.892 353.41 209.142 351.16C209.142 351.16 265.128 333.725 271.967 280.975C282.487 199.829 247.392 163.91 247.392 163.91C247.392 163.91 263.083 143.209 262.308 115.218C261.851 98.7087 255.504 79.3758 250.02 68.9149C242.774 55.0913 248.89 40.0984 228.554 25.4388C212.94 14.1831 188.738 7.61711 152.825 11.3175C152.825 11.3175 133.555 14.1109 127.805 17.8609C127.805 17.8609 108.83 4.73658 99.6258 4.54019Z" fill="#E5E5E5"/>
<path d="M74.0953 143.486C84.1501 165.912 196.818 203.322 247.207 164.091C255.804 157.398 287.703 209.883 279.117 292.734C276.59 317.111 69.9126 305.494 40.0328 269.514C35.653 246.534 45.2598 220.998 45.2598 220.998C45.2598 220.998 35.6787 199.091 43.4432 175.573C47.3753 163.664 58.5405 144.061 74.0953 143.486Z" fill="black"/>
<path d="M99.6005 5.70757C99.6105 5.37738 99.6348 4.10437 99.6428 3.72646C99.6428 3.57498 99.6425 3.52218 99.6525 3.40816C99.6525 3.27748 99.6925 3.09848 99.6625 2.97878C99.4866 2.30758 97.7207 2.97079 95.5773 3.80553C95.0331 4.01744 94.4415 4.24651 93.853 4.4507C93.1572 4.69212 92.2345 5.02075 91.1877 5.47441C88.7705 6.52201 85.4594 8.31775 82.4084 11.5992C77.3982 17.1251 74.5291 22.6995 73.4165 28.0676C72.3339 33.2909 72.9599 38.1117 74.6025 42.1891C76.2708 46.3304 78.9484 49.6159 81.8178 51.7868C83.3191 52.9226 84.8806 53.761 86.4103 54.278C87.0202 54.4842 87.6263 54.6397 88.2236 54.743C87.5285 55.6666 86.8005 56.6944 86.0585 57.805C84.5296 60.0932 82.9971 62.647 81.5371 65.3534C77.1662 73.4553 74.4612 81.0059 73.0505 86.1191C73.0135 86.2541 72.9765 86.3886 72.9406 86.5225C71.2566 92.7847 70.9724 97.6695 70.8059 98.7487C70.7809 98.9078 70.7819 98.8727 70.7539 99.0216C70.6286 99.6896 70.103 102.787 69.8657 104.616C69.5868 106.766 69.4333 108.51 69.3478 109.619C69.3358 109.771 69.3319 109.745 69.3259 109.91C69.3099 110.363 69.3547 111.715 69.4716 113.546C69.6808 116.834 70.0483 120.698 70.7036 125.626C71.2935 130.062 72.2703 136.26 74.517 143.348C74.5684 143.51 74.5869 143.681 74.571 143.849C74.5551 144.018 74.5054 144.18 74.425 144.325C74.3446 144.47 74.2354 144.596 74.1044 144.693C73.9735 144.789 73.8237 144.856 73.665 144.888C72.1327 145.194 70.4364 145.8 68.5871 146.843C66.9163 147.786 65.1842 149.052 63.4265 150.663C60.0439 153.765 56.8303 157.91 54.1154 162.633C52.9822 164.605 51.9624 166.632 51.0729 168.663C49.7125 171.768 48.6456 174.838 47.8437 177.76C46.4395 182.876 45.7262 187.991 45.8513 192.538C45.9949 195.538 46.5802 199.004 47.5685 202.886C48.3663 206.021 49.4127 209.369 50.6384 212.794C51.1588 214.248 51.6922 215.663 52.2221 217.011C53.472 220.192 54.8529 223.199 54.8937 223.122L54.8159 225.322C54.486 225.986 54.1492 226.851 53.8198 227.944C53.5108 228.97 53.2211 230.153 52.9543 231.484C52.4558 233.972 52.0624 236.856 51.7748 239.912C51.5101 242.725 51.3465 245.568 51.2734 248.097C51.2394 249.293 51.2254 250.397 51.2304 251.356C51.2404 252.293 51.2584 253.066 51.2934 253.628C51.8355 262.455 52.9622 270.425 54.756 277.69C56.4758 284.656 58.8042 290.958 61.8225 296.806C64.7379 302.454 68.2979 307.681 72.6049 312.727C76.7927 317.633 81.6665 322.346 87.3454 327.139C90.8344 330.089 95.2687 333.461 100.157 336.966C104.937 340.392 110.085 343.899 115.055 347.17C119.935 350.381 124.599 353.335 128.457 355.692C130.362 356.856 132.06 357.867 133.474 358.683C134.178 359.089 134.806 359.443 135.353 359.743C135.9 360.043 136.351 360.28 136.706 360.456C146.666 365.273 156.002 370.891 164.69 376.521C173.293 382.097 181.235 387.67 188.414 392.402C191.988 394.758 195.364 396.9 198.54 398.732C201.71 400.561 204.652 402.065 207.369 403.164C210.085 404.264 212.518 404.935 214.688 405.147C215.767 405.252 216.771 405.243 217.708 405.121C218.642 404.999 219.518 404.763 220.343 404.409C223.341 403.123 226.737 401.385 230.242 399.327C233.747 397.268 237.335 394.905 240.72 392.379C244.117 389.844 247.284 387.163 249.951 384.478C252.641 381.771 254.767 379.113 256.129 376.64C257.075 374.937 258.114 373.013 258.989 370.99C259.875 368.943 260.553 366.883 260.808 364.942C260.935 363.969 260.953 363.046 260.846 362.182C260.738 361.316 260.505 360.506 260.126 359.757C259.744 359.003 259.201 358.283 258.448 357.615C257.685 356.939 256.695 356.306 255.423 355.752C253.805 355.051 252.273 354.707 250.812 354.626C249.334 354.543 247.898 354.728 246.491 355.116C245.064 355.508 243.665 356.11 242.286 356.856C240.89 357.611 239.524 358.507 238.183 359.471C235.445 361.438 232.834 363.664 230.286 365.518C228.983 366.466 227.689 367.323 226.394 368.004C225.076 368.696 223.739 369.215 222.378 369.451C221.9 369.532 221.438 369.484 221.015 369.368C220.591 369.251 220.189 369.061 219.816 368.836C219.066 368.385 218.326 367.73 217.629 367.001C216.908 366.246 216.185 365.364 215.491 364.434C214.777 363.478 214.078 362.453 213.42 361.431C212.048 359.301 210.818 357.124 209.916 355.41C209.437 354.5 209.039 353.698 208.737 353.053C208.582 352.721 208.45 352.426 208.344 352.175C208.29 352.047 208.242 351.928 208.201 351.82C208.159 351.711 208.122 351.607 208.092 351.512C208.019 351.285 208.051 351.023 208.182 350.768C208.313 350.512 208.536 350.277 208.814 350.102C208.779 350.124 212.521 348.927 217.545 346.624C221.924 344.618 227.027 341.927 232.302 338.478C233.986 337.377 235.672 336.21 237.346 334.974C245.306 329.098 252.587 321.989 258.352 313.568C264.94 303.946 269.26 293.036 270.826 280.828C276.347 237.959 268.897 208.955 262.422 192.484C255.298 174.363 246.277 164.768 246.364 164.917L246.247 163.041C246.182 163.076 249.038 159.675 253.021 151.088C253.265 150.563 253.512 150.018 253.76 149.452C256.921 142.263 261.194 129.999 260.785 115.262C260.573 107.593 259.047 98.8814 256.592 90.2142C255.464 86.2305 254.166 82.3577 252.786 78.7879C251.452 75.3373 250.054 72.2079 248.698 69.6109C246.812 66.0045 245.803 62.3457 245.022 58.662C244.257 55.0534 243.715 51.4472 242.78 47.8641C241.858 44.3306 240.551 40.7969 238.257 37.2648C235.975 33.7519 232.682 30.1852 227.72 26.6003C220.063 21.0643 210.29 16.6856 198.023 14.1318C185.482 11.5209 170.544 10.8612 152.965 12.6576L153.02 12.6506C153.035 12.6329 148.053 13.3517 142.742 14.456C139.913 15.0441 137.031 15.7274 134.511 16.4796C133.208 16.8688 132.026 17.2691 131.007 17.6767C129.951 18.0991 129.109 18.5139 128.492 18.9115C128.308 18.9105 128.125 18.9093 127.955 18.9078C127.784 18.9064 127.629 18.9047 127.499 18.9029C127.369 18.9012 127.266 18.8993 127.196 18.8975C127.127 18.8957 127.093 18.894 127.095 18.8924C127.125 18.8926 121.834 15.29 116.579 12.3277C113.363 10.5147 110.259 8.95261 107.465 7.80211C105.863 7.14245 104.435 6.6475 103.175 6.30452C101.71 5.9055 100.536 5.72968 99.603 5.70741L99.6005 5.70757ZM99.6506 3.37563C100.821 3.39823 102.188 3.60867 103.785 4.03603C105.162 4.40435 106.687 4.92801 108.361 5.60936C111.278 6.79656 114.478 8.39352 117.757 10.2234C121.987 12.5833 126.212 15.3263 127.83 16.3843C128.485 16.0172 129.236 15.667 130.058 15.3321C131.165 14.8805 132.42 14.448 133.772 14.036C136.382 13.2401 139.338 12.5247 142.203 11.9125C147.598 10.7597 152.617 10.0048 152.632 9.98702C152.631 9.98697 152.631 9.98673 152.633 9.98635C152.636 9.98596 152.64 9.98542 152.645 9.98476C152.65 9.9841 152.657 9.98332 152.664 9.9825C152.671 9.98168 152.679 9.98083 152.687 9.98C170.475 8.13231 185.702 8.75824 198.583 11.4102C211.192 14.0059 221.354 18.5029 229.39 24.28C234.611 28.036 238.173 31.8439 240.682 35.6829C243.204 39.5428 244.627 43.3844 245.613 47.1193C246.611 50.8956 247.168 54.5515 247.918 58.0435C248.685 61.6151 249.635 64.9685 251.345 68.2215C252.772 70.9339 254.222 74.1665 255.595 77.6973C257.017 81.3539 258.35 85.3141 259.509 89.3851C262.024 98.2242 263.612 107.193 263.833 115.177C264.258 130.54 259.799 143.266 256.523 150.671C256.264 151.256 256.008 151.82 255.754 152.362C252.773 158.742 250.381 162.352 249.249 163.888C251.667 166.824 258.92 176.276 264.829 191.544C271.357 208.412 278.757 237.857 273.11 281.124C271.463 293.7 266.98 304.935 260.181 314.825C254.237 323.471 246.762 330.739 238.636 336.726C236.925 337.986 235.205 339.175 233.488 340.296C228.108 343.808 222.912 346.549 218.45 348.601C213.33 350.956 209.506 352.198 209.471 352.22L210.194 350.81C210.211 350.855 210.234 350.917 210.269 351C210.303 351.081 210.344 351.176 210.393 351.287C210.49 351.504 210.615 351.77 210.767 352.081C211.062 352.684 211.457 353.45 211.935 354.328C212.837 355.983 214.062 358.085 215.416 360.124C216.066 361.102 216.747 362.068 217.434 362.957C218.104 363.825 218.774 364.611 219.417 365.256C220.051 365.893 220.624 366.357 221.108 366.627C221.342 366.759 221.53 366.83 221.672 366.862C221.81 366.893 221.88 366.881 221.908 366.871C222.917 366.677 223.98 366.258 225.124 365.634C226.248 365.02 227.413 364.228 228.648 363.302C231.047 361.503 233.636 359.235 236.477 357.134C237.863 356.108 239.325 355.115 240.855 354.259C242.367 353.414 243.968 352.688 245.658 352.195C247.333 351.707 249.1 351.444 250.957 351.52C252.797 351.595 254.701 352.002 256.665 352.823C258.203 353.463 259.504 354.24 260.577 355.152C261.643 356.057 262.47 357.084 263.074 358.208C263.673 359.322 264.038 360.503 264.219 361.714C264.398 362.914 264.395 364.136 264.265 365.35C264.008 367.746 263.248 370.161 262.339 372.395C261.435 374.616 260.37 376.693 259.459 378.435C257.913 381.357 255.565 384.337 252.759 387.234C249.962 390.123 246.67 392.971 243.18 395.638C239.699 398.298 236.01 400.787 232.403 402.962C228.802 405.133 225.268 407.001 222.093 408.415C220.881 408.952 219.614 409.303 218.303 409.488C216.994 409.673 215.649 409.692 214.278 409.571C211.543 409.33 208.668 408.532 205.69 407.353C202.702 406.169 199.552 404.577 196.262 402.705C192.961 400.827 189.487 398.648 185.865 396.287C178.576 391.535 170.634 386.013 162.101 380.532C153.474 374.99 144.305 369.526 134.581 364.866C134.133 364.655 133.607 364.389 133.018 364.078C132.424 363.764 131.756 363.398 131.023 362.986C129.55 362.159 127.804 361.14 125.862 359.975C121.931 357.617 117.197 354.659 112.256 351.447C107.223 348.175 101.997 344.654 97.1335 341.203C92.1701 337.681 87.6005 334.245 83.9411 331.183C78.0826 326.272 72.9724 321.373 68.5373 316.207C63.9684 310.886 60.1558 305.327 57.0234 299.288C53.7811 293.037 51.3008 286.334 49.4824 278.994C47.5884 271.348 46.4212 263.043 45.8666 253.96C45.8246 253.255 45.8037 252.369 45.8027 251.373C45.8027 250.342 45.8217 249.174 45.8657 247.924C45.9577 245.284 46.15 242.322 46.456 239.384C46.7876 236.201 47.2438 233.123 47.8391 230.409C48.1583 228.953 48.5167 227.605 48.9182 226.39C49.2093 225.509 49.5261 224.69 49.8727 223.943C49.4171 222.695 48.6626 220.646 47.9785 218.523C47.5176 217.093 47.068 215.591 46.6474 214.045C45.6546 210.395 44.9143 206.838 44.4692 203.479C43.9172 199.315 43.8433 195.645 44.1843 192.485C44.6001 187.809 45.8518 182.673 47.5358 177.667C48.5023 174.793 49.6855 171.745 51.0705 168.663C51.9797 166.64 52.9639 164.601 54.03 162.587C56.5766 157.777 59.459 153.363 62.611 149.859C64.2495 148.038 65.9166 146.512 67.601 145.307C69.0411 144.277 70.464 143.503 71.8605 142.971C69.6227 136.177 68.6796 130.249 68.3566 125.867C67.9945 120.953 68.3696 116.615 68.7822 113.522C69.0298 111.668 69.2704 110.382 69.3234 109.91C69.3424 109.741 69.3334 109.776 69.3454 109.619C69.4304 108.51 69.5843 106.766 69.8632 104.616C70.1005 102.787 70.6259 99.6895 70.7512 99.0214C70.7782 98.8771 70.7682 98.9011 70.8032 98.7485C71.0448 97.6837 72.5294 93.0733 74.6789 87.0663C74.6791 87.0657 74.8174 86.6797 74.8176 86.6791C76.6181 81.6615 79.3463 74.545 83.7746 66.5798C85.2356 63.9518 86.7468 61.482 88.2399 59.2722C89.574 57.298 90.8312 55.6253 91.8991 54.3684C92.0723 54.1646 92.1797 53.9131 92.2072 53.6471C92.2348 53.381 92.1812 53.113 92.0534 52.8782C91.9257 52.6435 91.7298 52.4531 91.4916 52.3322C91.2535 52.2113 90.9842 52.1656 90.7194 52.2011C89.7189 52.3352 88.5407 52.2243 87.2338 51.7971C85.9941 51.392 84.6675 50.7103 83.3459 49.7375C80.8165 47.8757 78.3723 44.9897 76.8112 41.2795C75.282 37.6451 74.634 33.2917 75.5593 28.4975C76.5118 23.5622 79.1078 18.2806 83.8798 12.9238C86.5801 9.80673 89.6416 8.02108 91.8725 7.08284C92.8561 6.66915 93.7126 6.4044 94.3779 6.24639C94.944 6.11193 95.5073 6.05239 96.0393 6.04244C98.1107 6.00374 99.4332 6.75163 99.5935 6.10423C99.6235 5.98409 99.6035 5.80728 99.6035 5.67485C99.6035 5.56083 99.6035 5.50803 99.6135 5.35655C99.6235 4.97864 99.6485 3.70563 99.6555 3.37544L99.6506 3.37563Z" fill="black"/>
<path d="M62.5471 247.804C62.5471 247.804 66.8261 252.412 74.7458 243.055" stroke="white" stroke-width="2" stroke-linecap="round" stroke-linejoin="round"/>
<path d="M44.375 221.388C44.375 221.388 48.7346 235.678 62.5471 247.803C62.5471 247.803 70.3214 212.452 95.8843 205.765C95.8843 205.765 90.3455 198.105 89.4705 188.48" stroke="white" stroke-width="2" stroke-linecap="round" stroke-linejoin="round"/>
<path d="M94.8705 168.891C101.234 162.527 274.108 134.652 280.826 138.188C287.543 141.723 306.635 251.855 300.801 257.158C294.968 262.462 117.851 297.761 112.548 289.453C107.245 281.144 89.7439 178.968 94.8705 168.891Z" fill="white"/>
<path d="M95.7602 169.782C95.7502 169.784 95.7973 169.733 95.9407 169.643C96.0546 169.571 96.224 169.477 96.47 169.362C96.8812 169.168 97.4767 168.928 98.3352 168.634C99.784 168.137 101.848 167.533 104.717 166.796C110.263 165.372 117.599 163.76 125.89 162.028C131.971 160.757 135.363 160.079 141.445 158.809C150.796 156.839 157.846 155.01 164.134 153.796C168.182 153.013 171.041 152.606 174.551 152.013C178.262 151.387 181.706 150.747 186.321 150.056C186.795 149.985 187.26 149.917 187.719 149.851C193.99 148.954 199.341 148.43 211.934 146.719C220.631 145.537 236.092 143.417 249.986 141.801C257.74 140.898 265.47 140.097 271.289 139.719C273.881 139.551 276.086 139.468 277.712 139.498C278.491 139.512 279.112 139.553 279.558 139.616C279.775 139.647 279.933 139.681 280.029 139.712C280.184 139.763 280.073 139.747 280.018 139.723C279.934 139.689 279.912 139.672 279.929 139.703C279.944 139.73 279.992 139.795 280.056 139.896C280.19 140.109 280.362 140.42 280.575 140.882C280.781 141.328 281.006 141.873 281.25 142.527C281.489 143.169 281.742 143.903 282.008 144.731C282.529 146.352 283.091 148.305 283.689 150.576C284.272 152.787 284.883 155.28 285.517 158.029C286.749 163.368 288.052 169.615 289.36 176.442C290.63 183.079 291.893 190.207 293.072 197.428C294.233 204.543 295.305 211.702 296.211 218.484C297.115 225.248 297.847 231.586 298.337 237.095C298.584 239.861 298.768 242.404 298.884 244.68C299.001 246.976 299.046 248.977 299.017 250.651C299.003 251.492 298.97 252.239 298.919 252.891C298.868 253.549 298.801 254.09 298.723 254.517C298.643 254.955 298.561 255.222 298.509 255.337C298.478 255.405 298.486 255.367 298.51 255.322C298.539 255.266 298.625 255.124 298.801 254.959C298.979 254.793 299.001 254.799 298.945 254.826C298.874 254.86 298.765 254.913 298.561 254.999C298.159 255.167 297.587 255.378 296.818 255.631C295.264 256.143 293.116 256.761 290.462 257.464C284.941 258.927 277.448 260.7 268.993 262.583C264.038 263.687 258.765 264.826 253.341 265.969C239.497 268.886 223.034 272.178 205.914 275.37C194.726 277.456 183.304 279.49 172.417 281.298C161.827 283.057 151.768 284.597 143.009 285.75C138.688 286.319 134.695 286.792 131.12 287.151C127.559 287.507 124.436 287.748 121.826 287.857C120.525 287.912 119.365 287.933 118.35 287.921C117.331 287.909 116.488 287.864 115.809 287.792C115.105 287.717 114.693 287.625 114.457 287.555C114.352 287.524 114.341 287.514 114.402 287.56C114.468 287.611 114.636 287.739 114.804 288.014C114.741 287.942 114.608 287.718 114.44 287.361C114.274 287.006 114.085 286.548 113.878 285.99C113.461 284.867 112.995 283.403 112.492 281.643C111.47 278.074 110.325 273.397 109.134 268.04C106.617 256.719 103.979 242.755 101.769 229.525C99.2134 214.232 97.3535 200.733 96.3296 190.668C95.7149 184.625 95.4189 180.015 95.365 176.625C95.333 174.638 95.386 173.119 95.4934 171.97C95.5534 171.324 95.6305 170.81 95.7151 170.402C95.8101 169.944 95.91 169.649 95.9922 169.463L95.7602 169.782ZM93.749 168.322C93.5312 168.726 93.3489 169.217 93.1955 169.799C93.0572 170.324 92.9379 170.94 92.8391 171.66C92.6637 172.939 92.5502 174.567 92.5168 176.624C92.4598 180.136 92.6382 184.845 93.1189 190.957C93.9223 201.171 95.5317 214.722 97.8276 230.147C99.8127 243.485 102.215 257.526 104.522 269.016C105.61 274.435 106.669 279.236 107.62 282.96C108.089 284.793 108.539 286.397 108.961 287.693C109.172 288.339 109.382 288.931 109.593 289.45C109.797 289.955 110.028 290.458 110.292 290.894C110.625 291.426 111.054 291.801 111.441 292.063C111.829 292.325 112.237 292.516 112.619 292.659C113.374 292.943 114.24 293.123 115.135 293.245C116.048 293.369 117.086 293.445 118.225 293.482C119.367 293.519 120.636 293.517 122.015 293.481C124.778 293.41 128.027 293.2 131.662 292.876C135.318 292.55 139.379 292.106 143.75 291.567C152.609 290.474 162.752 288.985 173.394 287.272C184.338 285.511 195.812 283.512 207.039 281.452C224.217 278.298 240.74 275.014 254.631 272.07C260.073 270.917 265.37 269.762 270.351 268.638C278.833 266.725 286.416 264.895 292.048 263.356C294.744 262.619 297.027 261.94 298.751 261.343C299.595 261.051 300.347 260.764 300.966 260.485C301.274 260.346 301.58 260.196 301.863 260.033C302.124 259.883 302.474 259.662 302.802 259.36C303.159 259.03 303.417 258.67 303.604 258.347C303.792 258.024 303.934 257.695 304.044 257.386C304.261 256.781 304.403 256.118 304.502 255.459C304.603 254.791 304.67 254.054 304.712 253.264C304.754 252.476 304.773 251.614 304.77 250.688C304.76 248.851 304.676 246.719 304.517 244.347C304.358 241.988 304.127 239.377 303.835 236.564C303.253 230.963 302.424 224.555 301.421 217.752C300.415 210.927 299.238 203.734 297.969 196.593C296.68 189.345 295.303 182.193 293.914 175.531C292.484 168.68 291.053 162.4 289.686 157.018C288.982 154.248 288.297 151.724 287.638 149.476C286.962 147.171 286.313 145.158 285.696 143.465C285.381 142.599 285.073 141.813 284.772 141.111C284.466 140.399 284.165 139.764 283.867 139.216C283.567 138.661 283.254 138.166 282.926 137.755C282.758 137.545 282.573 137.342 282.371 137.16C282.168 136.978 281.923 136.795 281.634 136.654C281.326 136.502 281.006 136.425 280.752 136.379C280.479 136.329 280.182 136.298 279.881 136.278C279.269 136.239 278.52 136.238 277.689 136.263C275.946 136.317 273.656 136.491 271.048 136.744C265.163 137.315 257.425 138.309 249.677 139.398C235.383 141.406 221.021 143.724 211.718 145.307C199.182 147.441 193.943 148.661 187.712 149.805C187.256 149.888 186.793 149.972 186.321 150.056C181.639 150.889 178.348 151.372 174.551 152.013C170.952 152.621 168.288 153.156 164.134 153.796C157.804 154.77 150.551 155.456 141.106 156.992C136.855 157.683 131.226 158.684 125.443 159.798C117.195 161.385 109.641 163.003 104.108 164.405C101.206 165.14 99.0689 165.762 97.5327 166.286C96.6213 166.596 95.9378 166.867 95.4201 167.106C95.1086 167.25 94.8523 167.385 94.6389 167.513C94.3688 167.676 94.1539 167.836 93.9812 168.002L93.749 168.322Z" fill="black"/>
<path d="M186.642 195.16C215.779 192.738 244.369 188.009 272.642 181.66" stroke="black" stroke-width="2" stroke-linecap="round" stroke-linejoin="round"/>
<path d="M190.142 218.41C212.537 215.493 227.623 212.577 245.142 209.66" stroke="black" stroke-width="3" stroke-linecap="round" stroke-linejoin="round"/>
<path d="M193.392 242.41C221.703 240.268 250.113 234.763 278.892 227.66" stroke="black" stroke-width="2" stroke-linecap="round" stroke-linejoin="round"/>
<path d="M143.509 192.294C143.643 192.265 144.054 192.155 144.706 192.06C146.126 191.851 150.104 191.439 154.873 193.036C157.86 194.037 161.045 195.788 164.099 198.627C166.619 200.969 168.951 203.967 170.864 207.584C172.611 210.886 173.96 214.616 174.744 218.589C175.499 222.419 175.711 226.382 175.294 230.26C174.875 234.155 173.834 237.864 172.17 241.227C170.429 244.744 168.047 247.804 165.074 250.349C161.809 253.144 157.916 255.246 153.522 256.719C153.47 256.737 153.419 256.754 153.367 256.771C148.862 258.262 144.725 258.632 140.979 257.977C137.498 257.368 134.323 255.868 131.51 253.533C128.773 251.261 126.421 248.23 124.559 244.623C122.699 241.017 121.383 236.942 120.654 232.7C119.901 228.317 119.792 223.866 120.281 219.646C120.808 215.1 122.011 210.948 123.747 207.368C125.746 203.244 128.369 200.036 131.327 197.659C135.383 194.399 139.769 192.929 143.477 192.3L143.509 192.294ZM143.267 190.89C139.392 191.389 134.622 192.674 130.023 195.925C126.654 198.306 123.568 201.615 121.107 205.98C118.973 209.766 117.396 214.2 116.544 219.101C115.754 223.646 115.607 228.497 116.183 233.344C116.74 238.028 117.969 242.66 119.9 246.88C121.829 251.098 124.449 254.88 127.755 257.856C131.181 260.941 135.25 263.074 139.844 263.989C144.774 264.972 150.006 264.495 155.34 262.728C155.4 262.708 155.46 262.688 155.519 262.668C160.592 260.964 165.214 258.414 169.096 254.919C172.635 251.733 175.387 247.915 177.293 243.618C179.11 239.523 180.1 235.126 180.346 230.662C180.591 226.22 180.096 221.79 179.013 217.609C177.889 213.269 176.15 209.267 174.005 205.783C171.652 201.963 168.876 198.862 165.935 196.498C162.368 193.629 158.746 191.982 155.434 191.131C150.209 189.787 145.898 190.499 144.506 190.706C143.962 190.787 143.238 190.895 143.236 190.895L143.267 190.89Z" fill="black"/>
<path d="M229.89 159.535L228.491 167.528L229.89 159.535Z" fill="black" fill-opacity="0.48382"/>
<path d="M229.89 159.535L228.491 167.528" stroke="black" stroke-width="2.10553" stroke-linecap="round" stroke-linejoin="round"/>
<path d="M233.933 159.211L232.59 167.818L233.933 159.211Z" fill="black" fill-opacity="0.48382"/>
<path d="M233.933 159.211L232.59 167.818" stroke="black" stroke-width="2.09349" stroke-linecap="round" stroke-linejoin="round"/>
<path d="M225.48 162.171L236.842 161.475L225.48 162.171Z" fill="black" fill-opacity="0.48382"/>
<path d="M225.48 162.171L236.842 161.475" stroke="black" stroke-width="2.02582" stroke-linecap="round" stroke-linejoin="round"/>
<path d="M225.921 165.401L236.049 164.443L225.921 165.401Z" fill="black" fill-opacity="0.48382"/>
<path d="M225.921 165.401L236.049 164.443" stroke="black" stroke-width="2" stroke-linecap="round" stroke-linejoin="round"/>
<path d="M258.216 156.202L264.444 155.145L259.861 164.78" stroke="black" stroke-width="2" stroke-linecap="round" stroke-linejoin="round"/>
<path d="M265.259 159.484L259.149 159.954L265.259 159.484Z" fill="black" fill-opacity="0.48382"/>
<path d="M265.259 159.484L259.149 159.954" stroke="black" stroke-width="2" stroke-linecap="round" stroke-linejoin="round"/>
<path d="M244.156 157.844C247.112 157.929 249.719 164.182 244.498 165.191C241.997 165.675 239.416 157.707 244.156 157.844Z" stroke="black" stroke-width="2" stroke-linecap="round" stroke-linejoin="round"/>
<path d="M252.437 157.144C255.393 157.23 258 163.483 252.779 164.492C250.278 164.975 247.697 157.007 252.437 157.144Z" stroke="black" stroke-width="2" stroke-linecap="round" stroke-linejoin="round"/>
<path d="M86.4424 246.502C79.654 243.763 72.1922 241.832 67.3169 235.71C67.3169 235.71 72.3844 221.847 76.825 217.014C81.2656 212.182 91.4734 208.001 93.0806 207.584C93.0806 207.584 98.2747 214.329 99.7776 215.471C103.54 218.328 107.453 220.209 112.88 220.825C114.93 221.057 116.539 221.119 121.829 221.166C124.308 221.189 126.595 221.227 126.911 221.252C130.044 221.494 131.965 221.938 133.735 222.83C136.52 224.231 138.125 226.488 138.472 229.49C138.54 230.079 138.5 231.813 138.403 232.438C138.088 234.485 137.463 236.414 136.415 238.581C134.906 241.7 132.751 244.719 130.139 247.374C128.509 249.032 126.895 249.9 125.314 250.903C123.782 251.875 121.678 252.294 119.769 252.59C117.583 252.929 113.135 252.672 113.135 252.672L106.445 251.676C106.445 251.676 92.8295 249.078 86.4424 246.502Z" fill="#E5E5E5"/>
<path d="M66.5522 235.131C67.1705 236.026 68.5476 238.369 71.864 241.01C72.0213 241.135 72.1835 241.261 72.3506 241.389C73.8759 242.551 76.1882 244.067 79.3916 245.698C83.9282 248.009 89.9881 250.404 97.1475 252.215C102.837 253.654 108.903 254.631 114.312 254.755C116.829 254.812 119.183 254.683 121.238 254.329C122.252 254.154 123.199 253.924 124.059 253.632C124.916 253.34 125.697 252.984 126.375 252.554C128.91 250.942 131.291 248.673 133.267 246.176C135.449 243.418 137.055 240.498 138.044 237.781C138.619 236.201 138.972 234.728 139.151 233.381C139.373 231.703 139.316 230.284 139.133 229.095C139.036 228.468 138.907 227.917 138.773 227.438C138.491 226.43 138.13 225.543 137.87 224.964C137.402 223.92 136.708 222.48 134.794 221.141C133.634 220.331 132.075 219.559 129.961 219.082C128.397 218.728 126.717 218.575 124.832 218.551C121.579 218.508 117.961 218.866 114.487 218.775C112.737 218.729 111.07 218.572 109.445 218.234C107.681 217.867 106.055 217.305 104.508 216.522C102.601 215.558 100.964 214.333 99.509 212.998C97.5487 211.199 96.1254 209.383 95.5115 208.836C95.105 208.474 94.8406 208.497 94.7056 208.425C94.5299 208.331 94.9152 208.524 94.7056 208.425C94.437 208.297 93.3533 207.737 93.0803 207.584C93.0803 207.897 93.1104 209.136 93.1204 209.443C93.1034 209.238 93.1304 209.683 93.1204 209.443C93.1324 209.595 93.0016 209.843 93.2034 210.385C93.4968 211.175 94.7771 213.403 96.8215 215.654C98.3417 217.328 100.213 218.945 102.491 220.247C104.351 221.31 106.337 222.081 108.47 222.587C110.426 223.051 112.387 223.264 114.344 223.335C118.232 223.475 121.899 223.082 124.823 223.051C126.525 223.033 127.89 223.119 129.102 223.327C130.702 223.603 131.821 224.063 132.676 224.518C133.927 225.186 135.188 225.987 135.69 226.447C136.066 226.791 136.518 227.31 136.89 228.114C137.06 228.479 137.22 228.921 137.344 229.44C137.579 230.422 137.683 231.664 137.503 233.172C137.357 234.387 137.032 235.738 136.479 237.202C135.528 239.724 133.949 242.446 131.812 244.991C129.87 247.303 127.581 249.325 125.238 250.693C124.722 250.993 124.097 251.257 123.362 251.482C122.626 251.706 121.792 251.887 120.869 252.021C118.993 252.294 116.797 252.372 114.39 252.274C109.213 252.061 103.359 251.051 97.8127 249.615C90.8367 247.808 84.973 245.512 80.5261 243.396C77.3951 241.905 75.108 240.577 73.53 239.642C73.3571 239.54 73.1879 239.439 73.0227 239.34C69.6376 237.318 67.3532 235.801 66.5522 235.131Z" fill="#040404"/>
<path d="M123.638 365.535C123.638 365.535 106.418 345.519 94.565 341.03C88.2556 338.64 79.0775 337.742 74.3302 340.548C66.4381 345.212 85.2203 329.66 85.2203 329.66L128.568 359.886L123.638 365.535Z" fill="black" stroke="black" stroke-width="2" stroke-linecap="round" stroke-linejoin="round"/>
<path d="M285.422 186.57C286.82 182.259 291.079 173.312 302.923 180.029C314.767 186.747 309.644 211.696 304.337 214.677C299.03 217.659 292.004 216.12 288.25 212.203C282.303 205.996 283.14 193.605 285.422 186.57Z" fill="#E5E5E5"/>
<path d="M286.115 186.794C286.287 186.239 286.776 184.686 287.657 183.12C288.315 181.951 289.265 180.634 290.604 179.654C291.222 179.202 291.925 178.82 292.724 178.556C293.511 178.295 294.392 178.148 295.378 178.159C296.375 178.17 297.47 178.342 298.67 178.71C299.914 179.092 301.246 179.677 302.667 180.48C304.138 181.312 305.287 182.413 306.184 183.633C307.022 184.771 307.644 186.017 308.107 187.255C308.202 187.511 308.292 187.768 308.375 188.027C308.928 189.735 309.237 191.514 309.386 193.217C309.549 195.084 309.527 196.95 309.386 198.712C309.239 200.541 308.958 202.336 308.579 204.019C308.213 205.648 307.744 207.226 307.194 208.649C306.689 209.953 306.108 211.149 305.48 212.094C305.192 212.528 304.9 212.901 304.61 213.199C304.335 213.482 304.078 213.682 303.847 213.805C302.783 214.383 301.492 214.862 299.965 215.085C298.694 215.27 297.312 215.268 295.885 215.029C294.573 214.809 293.266 214.394 292.048 213.787C290.866 213.197 289.802 212.442 288.928 211.553C287.524 210.11 286.515 208.292 285.821 206.284C285.084 204.155 284.716 201.859 284.583 199.653C284.431 197.139 284.582 194.751 284.835 192.775C285.185 190.036 285.738 187.98 286.115 186.794ZM284.729 186.345C284.316 187.594 283.705 189.725 283.295 192.565C282.999 194.61 282.8 197.098 282.918 199.74C283.021 202.053 283.371 204.519 284.137 206.851C284.859 209.051 285.96 211.146 287.573 212.852C288.583 213.929 289.808 214.833 291.155 215.535C292.543 216.259 294.037 216.756 295.538 217.024C297.174 217.317 298.774 217.331 300.261 217.113C302.05 216.851 303.577 216.27 304.827 215.549C305.28 215.288 305.685 214.933 306.042 214.541C306.424 214.123 306.774 213.637 307.091 213.121C307.781 211.999 308.369 210.649 308.847 209.251C309.374 207.714 309.797 206.039 310.11 204.331C310.434 202.565 310.652 200.694 310.737 198.796C310.819 196.969 310.781 195.034 310.563 193.099C310.364 191.335 310.004 189.479 309.398 187.688C309.306 187.417 309.209 187.146 309.105 186.876C308.602 185.572 307.929 184.242 307.02 183.015C306.044 181.698 304.789 180.493 303.179 179.577C301.708 178.741 300.311 178.116 298.985 177.698C297.705 177.295 296.511 177.09 295.398 177.062C294.295 177.034 293.29 177.181 292.375 177.463C291.447 177.75 290.628 178.172 289.907 178.673C288.35 179.755 287.253 181.205 286.505 182.448C285.501 184.117 284.924 185.768 284.729 186.345Z" fill="black"/>
<path d="M237.793 122.847C237.793 122.847 232.644 124.724 228.529 123.286C224.414 121.848 213.245 131.47 205.786 120.408C204.21 117.897 210.912 140.457 221.825 140.622C233.172 140.794 234.547 134.139 237.793 122.847Z" fill="black"/>
<path d="M223.242 102.507C223.242 102.507 227.658 99.6051 236.364 100.993C245.071 102.381 231.701 111.653 231.701 111.653C231.701 111.653 216.049 107.807 223.242 102.507Z" fill="white" stroke="black" stroke-width="4" stroke-linecap="round" stroke-linejoin="round"/>
<path d="M205.786 120.407C205.786 120.407 210.257 131.75 227.346 123.138C231.887 120.495 231.849 112.746 231.849 112.746" stroke="black" stroke-width="2" stroke-linecap="round" stroke-linejoin="round"/>
<path d="M231.932 125.457C231.932 125.457 231.396 130.019 230.021 130.707C228.646 131.394 226.122 131.732 225.442 130.64C224.703 129.455 224.252 127.369 224.718 127.034L228.563 124.268L231.932 125.457Z" fill="white" stroke="black" stroke-width="3" stroke-linecap="round" stroke-linejoin="round"/>
<path d="M228.763 123.552C228.763 123.552 233.58 127.643 240.45 120.555" stroke="black" stroke-width="2" stroke-linecap="round" stroke-linejoin="round"/>
<path d="M185.6 93.1186C195.45 91.0852 185.783 79.0373 183.046 79.749C180.31 80.4607 176.115 91.6953 185.6 93.1186Z" fill="black" stroke="black" stroke-width="1.54073" stroke-linecap="round" stroke-linejoin="round"/>
<path d="M230.827 76.0939C225.445 77.0863 229.1 87.732 233.879 87.2358C238.659 86.7396 236.611 75.4624 230.827 76.0939Z" fill="black" stroke="black" stroke-width="1.36205" stroke-linecap="round" stroke-linejoin="round"/>
<path d="M236.29 369.597C243.517 363.908 254.681 367.529 250.376 372.841C250.904 368.305 241.582 367.377 236.29 369.597Z" fill="black" stroke="black" stroke-linecap="round" stroke-linejoin="round"/>
<path d="M234.482 362.82C248.488 355.117 252.297 358.691 253.371 359.286C256.94 361.262 256.275 368.277 255.725 366.165C254.048 359.726 246.566 355.388 224.466 368.719L234.482 362.82Z" fill="black" stroke="black" stroke-linecap="round" stroke-linejoin="round"/>
<path d="M116.833 391.854C122.195 388.803 130.515 390.466 131.342 394.429C131.695 396.119 132.77 395.387 132.77 395.387C132.77 395.387 126.655 388.79 116.833 391.854Z" fill="black" stroke="black" stroke-linecap="round" stroke-linejoin="round"/>
<path d="M202.803 107.719C202.803 107.719 174.119 98.202 141.17 120.869C141.17 120.869 164.825 111.907 177.187 109.555C185.597 107.956 202.803 107.719 202.803 107.719Z" fill="black" stroke="black" stroke-linecap="round" stroke-linejoin="round"/>
<path d="M205.79 114.917C205.79 114.917 190.742 110.264 164.804 140.1C164.804 140.1 185.004 123.63 193.739 119.713C202.474 115.797 205.79 114.917 205.79 114.917Z" fill="black" stroke="black" stroke-linecap="round" stroke-linejoin="round"/>
<path d="M289.341 113.121C289.341 113.121 283.189 95.9083 245.28 108.648C245.28 108.648 264.715 105.45 274.26 107.03C279.609 107.915 289.341 113.121 289.341 113.121Z" fill="black" stroke="black" stroke-linecap="round" stroke-linejoin="round"/>
<path d="M277.771 128.303C277.771 128.303 285.155 119.126 245.893 114.498C245.893 114.498 257.504 116.523 262.864 118.84C268.266 121.176 272.038 123.324 277.771 128.303Z" fill="black" stroke="black" stroke-linecap="round" stroke-linejoin="round"/>
<path d="M103.467 44.1341C103.467 44.1341 116.459 37.7159 114.727 32.8297C114.068 30.9698 98.4673 9.0923 89.5923 17.9673C80.7173 26.8423 94.72 21.6896 98.97 22.6896C103.22 23.6896 109.517 27.5342 107.892 30.9092C106.267 34.2842 96.7666 31.0342 96.5166 35.4092C96.2666 39.7842 100.342 43.8841 103.467 44.1341Z" fill="black" stroke="black" stroke-linecap="round" stroke-linejoin="round"/>
<path d="M209.496 352.297C209.496 352.297 203.584 340.661 202.704 333.823C202.072 328.907 209.598 352.243 222.982 345.173L209.496 352.297Z" fill="black" stroke="black" stroke-width="2" stroke-linecap="round" stroke-linejoin="round"/>
</svg>
